<svg width="18" height="19" viewBox="0 0 18 19" fill="none" xmlns="http://www.w3.org/2000/svg">
<path d="M8.06241 2.33749C8.58741 1.89499 9.43491 1.89499 9.94491 2.33749L11.1299 3.34999C11.3549 3.53749 11.7824 3.69499 12.0824 3.69499H13.3574C14.1524 3.69499 14.8049 4.34749 14.8049 5.14249V6.41749C14.8049 6.71749 14.9624 7.13749 15.1499 7.36249L16.1624 8.54749C16.6049 9.07249 16.6049 9.91999 16.1624 10.43L15.1499 11.615C14.9624 11.84 14.8049 12.26 14.8049 12.56V13.835C14.8049 14.63 14.1524 15.2825 13.3574 15.2825H12.0824C11.7824 15.2825 11.3624 15.44 11.1374 15.6275L9.95241 16.64C9.42741 17.0825 8.57991 17.0825 8.06991 16.64L6.88491 15.6275C6.65991 15.44 6.23241 15.2825 5.93991 15.2825H4.62741C3.83241 15.2825 3.17991 14.63 3.17991 13.835V12.5525C3.17991 12.26 3.02991 11.8325 2.84241 11.615L1.82991 10.4225C1.39491 9.90499 1.39491 9.06499 1.82991 8.54749L2.84241 7.35499C3.02991 7.12999 3.17991 6.70999 3.17991 6.41749V5.14999C3.17991 4.35499 3.83241 3.70249 4.62741 3.70249H5.92491C6.22491 3.70249 6.64491 3.54499 6.86991 3.35749L8.06241 2.33749Z" stroke="#FEFEFE" stroke-linecap="round" stroke-linejoin="round"/>
<path d="M9 6.59747V10.22" stroke="#FEFEFE" stroke-linecap="round" stroke-linejoin="round"/>
<path d="M8.99585 12.5H9.00259" stroke="#FEFEFE" stroke-width="1.5" stroke-linecap="round" stroke-linejoin="round"/>
</svg>
