<svg width="41" height="40" viewBox="0 0 41 40" fill="none" xmlns="http://www.w3.org/2000/svg">
<g clip-path="url(#clip0_12_3137)">
<path fill-rule="evenodd" clip-rule="evenodd" d="M26.0557 11.6853C24.4112 10.5865 22.4778 10 20.5 10V0C24.4556 0 28.3224 1.17298 31.6114 3.37061C34.9004 5.56823 37.4638 8.69181 38.9776 12.3463C40.4913 16.0008 40.8874 20.0222 40.1157 23.9018C39.344 27.7814 37.4392 31.3451 34.6421 34.1421C31.8451 36.9392 28.2814 38.844 24.4018 39.6157C20.5222 40.3874 16.5008 39.9913 12.8463 38.4776C9.19181 36.9638 6.06823 34.4004 3.87061 31.1114C1.67298 27.8224 0.5 23.9556 0.5 20H10.5C10.5 21.9778 11.0865 23.9112 12.1853 25.5557C13.2841 27.2002 14.8459 28.4819 16.6732 29.2388C18.5004 29.9957 20.5111 30.1937 22.4509 29.8078C24.3907 29.422 26.1725 28.4696 27.5711 27.0711C28.9696 25.6725 29.922 23.8907 30.3078 21.9509C30.6937 20.0111 30.4957 18.0004 29.7388 16.1732C28.9819 14.3459 27.7002 12.7841 26.0557 11.6853Z" fill="#007DFC"/>
<path fill-rule="evenodd" clip-rule="evenodd" d="M10.5 4.33125e-06C10.5 1.31322 10.2413 2.61358 9.73879 3.82683C9.23624 5.04009 8.49965 6.14248 7.57106 7.07107C6.64248 7.99966 5.54009 8.73625 4.32683 9.2388C3.11357 9.74134 1.81321 10 0.5 10L0.5 20C3.12643 20 5.72715 19.4827 8.15367 18.4776C10.5802 17.4725 12.785 15.9993 14.6421 14.1421C16.4993 12.285 17.9725 10.0802 18.9776 7.65367C19.9827 5.22715 20.5 2.62643 20.5 0L10.5 4.33125e-06Z" fill="#007DFC"/>
</g>
<defs>
<clipPath id="clip0_12_3137">
<rect width="40" height="40" fill="white" transform="translate(0.5)"/>
</clipPath>
</defs>
</svg>
