<svg width="125" height="40" viewBox="0 0 125 40" fill="none" xmlns="http://www.w3.org/2000/svg">
<g clip-path="url(#clip0_6_2377)">
<path fill-rule="evenodd" clip-rule="evenodd" d="M25.5557 11.6853C23.9112 10.5865 21.9778 10 20 10V0C23.9556 0 27.8224 1.17298 31.1114 3.37061C34.4004 5.56823 36.9638 8.69181 38.4776 12.3463C39.9913 16.0008 40.3874 20.0222 39.6157 23.9018C38.844 27.7814 36.9392 31.3451 34.1421 34.1421C31.3451 36.9392 27.7814 38.844 23.9018 39.6157C20.0222 40.3874 16.0008 39.9913 12.3463 38.4776C8.69181 36.9638 5.56823 34.4004 3.37061 31.1114C1.17298 27.8224 0 23.9556 0 20H10C10 21.9778 10.5865 23.9112 11.6853 25.5557C12.7841 27.2002 14.3459 28.4819 16.1732 29.2388C18.0004 29.9957 20.0111 30.1937 21.9509 29.8078C23.8907 29.422 25.6725 28.4696 27.0711 27.0711C28.4696 25.6725 29.422 23.8907 29.8078 21.9509C30.1937 20.0111 29.9957 18.0004 29.2388 16.1732C28.4819 14.3459 27.2002 12.7841 25.5557 11.6853Z" fill="#007DFC"/>
<path fill-rule="evenodd" clip-rule="evenodd" d="M10 4.33125e-06C10 1.31322 9.74135 2.61358 9.2388 3.82683C8.73625 5.04009 7.99965 6.14248 7.07106 7.07107C6.14249 7.99966 5.04009 8.73625 3.82683 9.2388C2.61357 9.74134 1.31322 10 4.3711e-07 10L0 20C2.62644 20 5.22715 19.4827 7.65368 18.4776C10.0802 17.4725 12.285 15.9993 14.1421 14.1421C15.9993 12.285 17.4725 10.0802 18.4776 7.65367C19.4827 5.22715 20 2.62643 20 0L10 4.33125e-06Z" fill="#007DFC"/>
</g>
<path d="M58.5859 16.1211C58.5599 16.2513 58.5404 16.3815 58.5273 16.5117C58.5143 16.6289 58.5078 16.7526 58.5078 16.8828C58.4427 17.0391 58.3971 17.1497 58.3711 17.2148C58.3451 17.2799 58.2799 17.3125 58.1758 17.3125C58.1497 17.3385 58.1172 17.3581 58.0781 17.3711C58.0391 17.3711 58 17.3776 57.9609 17.3906C57.9089 17.3646 57.8633 17.3451 57.8242 17.332C57.7852 17.319 57.7331 17.319 57.668 17.332C57.6419 17.293 57.6094 17.2734 57.5703 17.2734C57.5312 17.2604 57.4987 17.2409 57.4727 17.2148C57.4727 17.1497 57.4531 17.0977 57.4141 17.0586C57.388 17.0065 57.3555 16.9479 57.3164 16.8828C57.3164 16.8438 57.3099 16.7982 57.2969 16.7461C57.2969 16.681 57.3099 16.6354 57.3359 16.6094C57.3229 16.5312 57.3229 16.4857 57.3359 16.4727C57.349 16.4466 57.3555 16.4206 57.3555 16.3945C57.3685 16.3685 57.3685 16.3359 57.3555 16.2969C57.3424 16.2578 57.3359 16.2253 57.3359 16.1992C57.375 16.069 57.388 15.9844 57.375 15.9453C57.362 15.9062 57.3555 15.8737 57.3555 15.8477C57.3685 15.7435 57.3685 15.6198 57.3555 15.4766C57.3555 15.3333 57.3294 15.2161 57.2773 15.125C57.2904 14.9557 57.2708 14.8125 57.2188 14.6953C57.1667 14.5781 57.0299 14.5651 56.8086 14.6562C56.7044 14.6042 56.5807 14.6042 56.4375 14.6562C56.2943 14.6953 56.2161 14.7148 56.2031 14.7148C56.0599 14.6888 55.9818 14.6888 55.9688 14.7148C55.9688 14.7018 55.9362 14.6953 55.8711 14.6953C55.819 14.6823 55.7865 14.6693 55.7734 14.6562C55.7083 14.6302 55.6432 14.6107 55.5781 14.5977C55.513 14.5716 55.4479 14.5846 55.3828 14.6367C55.2005 14.6628 55.0703 14.6628 54.9922 14.6367C54.9271 14.6107 54.862 14.6302 54.7969 14.6953C54.6667 14.6302 54.5169 14.6172 54.3477 14.6562C54.2956 14.6172 54.224 14.6107 54.1328 14.6367C54.0417 14.6497 53.9831 14.6367 53.957 14.5977C53.7747 14.5846 53.599 14.5846 53.4297 14.5977C53.2734 14.6107 53.1367 14.6172 53.0195 14.6172C52.9544 14.6823 52.9219 14.7865 52.9219 14.9297C52.9349 15.0729 52.9674 15.1771 53.0195 15.2422C52.9935 15.3073 52.9935 15.4115 53.0195 15.5547C53.0456 15.6849 53.0456 15.7565 53.0195 15.7695C53.0456 15.8737 53.0521 15.9258 53.0391 15.9258C53.0391 15.9258 53.0391 15.9388 53.0391 15.9648C53.0391 15.9909 53.0326 16.043 53.0195 16.1211C53.0195 16.1992 53.0195 16.2839 53.0195 16.375C53.0195 16.4661 53.0195 16.5508 53.0195 16.6289C53.0195 16.707 53.0195 16.7526 53.0195 16.7656C52.9674 17.026 52.9349 17.2344 52.9219 17.3906C52.9219 17.5469 52.9219 17.7031 52.9219 17.8594C52.9219 18.0026 52.9219 18.0938 52.9219 18.1328C52.9349 18.1589 52.9414 18.1849 52.9414 18.2109C52.9023 18.3151 52.8893 18.3932 52.9023 18.4453C52.9154 18.4974 52.9089 18.5365 52.8828 18.5625C52.8828 18.5885 52.8893 18.6341 52.9023 18.6992C52.9284 18.7643 52.9219 18.8099 52.8828 18.8359C52.9089 18.888 52.9219 18.9466 52.9219 19.0117C52.9349 19.0768 52.9609 19.1354 53 19.1875C53 19.3177 52.987 19.3958 52.9609 19.4219C52.9349 19.4349 52.9219 19.4544 52.9219 19.4805C52.9219 19.4935 52.9219 19.5781 52.9219 19.7344C52.9349 19.8906 52.9414 19.9753 52.9414 19.9883C52.9414 20.0404 52.9219 20.0924 52.8828 20.1445C52.8568 20.1836 52.8438 20.2292 52.8438 20.2812C52.8438 20.3854 52.8568 20.4635 52.8828 20.5156C52.9089 20.5677 52.8893 20.6458 52.8242 20.75C52.8372 20.8542 52.8372 20.9128 52.8242 20.9258C52.8112 20.9258 52.8047 20.9388 52.8047 20.9648C52.8307 21.1211 52.8372 21.2188 52.8242 21.2578C52.8242 21.2969 52.8242 21.3424 52.8242 21.3945C52.8372 21.4857 52.8568 21.5768 52.8828 21.668C52.9219 21.7461 52.9479 21.8242 52.9609 21.9023C52.8828 22.0065 52.8503 22.0716 52.8633 22.0977C52.8763 22.1107 52.8828 22.1302 52.8828 22.1562C52.8177 22.1823 52.7917 22.2214 52.8047 22.2734C52.8307 22.3255 52.8242 22.3646 52.7852 22.3906C52.8372 22.4557 52.8372 22.5404 52.7852 22.6445C52.7852 22.7096 52.8242 22.7812 52.9023 22.8594C52.8763 22.8854 52.8568 22.9245 52.8438 22.9766C52.8438 23.0156 52.8307 23.0482 52.8047 23.0742C52.8177 23.1784 52.8242 23.3281 52.8242 23.5234C52.8372 23.7188 52.8568 23.8685 52.8828 23.9727C52.8958 24.0247 52.9089 24.0964 52.9219 24.1875C52.9479 24.2786 52.9609 24.3372 52.9609 24.3633C52.987 24.5456 52.9935 24.6628 52.9805 24.7148C52.9674 24.7669 52.9805 24.8516 53.0195 24.9688C53.0326 25.0078 53.0521 25.0534 53.0781 25.1055C53.1042 25.1445 53.1042 25.1901 53.0781 25.2422C53.1823 25.3724 53.2148 25.457 53.1758 25.4961C53.1497 25.5221 53.1497 25.5547 53.1758 25.5938C53.2799 25.6198 53.3841 25.6198 53.4883 25.5938C53.5924 25.5547 53.6901 25.5612 53.7812 25.6133C53.8854 25.6003 53.9635 25.5872 54.0156 25.5742C54.0677 25.5612 54.0872 25.5807 54.0742 25.6328C54.2305 25.6589 54.3411 25.7044 54.4062 25.7695C54.4714 25.8216 54.5234 25.8477 54.5625 25.8477C54.5885 25.9128 54.6146 25.9714 54.6406 26.0234C54.6797 26.0755 54.7057 26.1341 54.7188 26.1992C54.6797 26.2773 54.6602 26.3294 54.6602 26.3555C54.6732 26.3685 54.6732 26.3815 54.6602 26.3945C54.6341 26.4336 54.6081 26.4661 54.582 26.4922C54.556 26.5052 54.5365 26.5312 54.5234 26.5703C54.4714 26.5833 54.4258 26.5964 54.3867 26.6094C54.3477 26.6224 54.3216 26.6615 54.3086 26.7266C54.2565 26.6875 54.2174 26.6745 54.1914 26.6875C54.1654 26.7005 54.1263 26.7201 54.0742 26.7461C53.957 26.707 53.8659 26.694 53.8008 26.707C53.7487 26.707 53.7096 26.694 53.6836 26.668C53.5273 26.707 53.3776 26.7135 53.2344 26.6875C53.0911 26.6484 52.9935 26.6354 52.9414 26.6484C52.7721 26.7135 52.6549 26.7331 52.5898 26.707C52.5378 26.668 52.4792 26.6484 52.4141 26.6484C52.2448 26.7266 52.1276 26.7656 52.0625 26.7656C52.0104 26.7656 51.9518 26.7721 51.8867 26.7852C51.7695 26.8242 51.6979 26.8568 51.6719 26.8828C51.6589 26.8958 51.5807 26.8958 51.4375 26.8828C51.4245 26.9089 51.3529 26.9284 51.2227 26.9414C51.1055 26.9414 51.0404 26.9349 51.0273 26.9219C50.9753 26.9219 50.9167 26.8958 50.8516 26.8438C50.7995 26.7917 50.7669 26.7461 50.7539 26.707C50.6237 26.681 50.5391 26.6224 50.5 26.5312C50.474 26.4271 50.4479 26.3229 50.4219 26.2188C50.4609 26.1797 50.5 26.1341 50.5391 26.082C50.5911 26.0169 50.6432 25.9779 50.6953 25.9648C50.8385 25.9258 50.9557 25.9128 51.0469 25.9258C51.138 25.9388 51.2161 25.9128 51.2812 25.8477C51.3854 25.8346 51.4831 25.8216 51.5742 25.8086C51.6654 25.7956 51.7565 25.7695 51.8477 25.7305C51.8737 25.5221 51.8477 25.3333 51.7695 25.1641C51.7565 25.138 51.7565 25.1055 51.7695 25.0664C51.7956 25.0273 51.8021 24.9948 51.7891 24.9688C51.763 24.9036 51.7305 24.8255 51.6914 24.7344C51.6523 24.6432 51.6719 24.5651 51.75 24.5C51.724 24.3568 51.7109 24.2461 51.7109 24.168C51.7109 24.0898 51.6849 24.0247 51.6328 23.9727C51.6458 23.9336 51.6458 23.8945 51.6328 23.8555C51.6198 23.8164 51.6198 23.7773 51.6328 23.7383C51.6458 23.6471 51.6589 23.5755 51.6719 23.5234C51.6849 23.4583 51.6784 23.3737 51.6523 23.2695C51.6133 23.1654 51.6003 23.0872 51.6133 23.0352C51.6393 22.9701 51.6198 22.8984 51.5547 22.8203C51.5677 22.7552 51.5807 22.7031 51.5938 22.6641C51.6068 22.612 51.6068 22.5599 51.5938 22.5078C51.5807 22.4167 51.5872 22.3385 51.6133 22.2734C51.6523 22.2083 51.6589 22.1823 51.6328 22.1953C51.6458 22.1302 51.6458 22.0781 51.6328 22.0391C51.6198 21.987 51.6198 21.9349 51.6328 21.8828C51.6328 21.8307 51.6393 21.7852 51.6523 21.7461C51.6654 21.694 51.6719 21.6419 51.6719 21.5898C51.6849 21.5508 51.6784 21.5182 51.6523 21.4922C51.6393 21.4531 51.6328 21.4206 51.6328 21.3945C51.6198 21.3034 51.6198 21.2057 51.6328 21.1016C51.6589 20.9974 51.6393 20.9128 51.5742 20.8477C51.6263 20.7565 51.6523 20.6523 51.6523 20.5352C51.6654 20.418 51.6849 20.3073 51.7109 20.2031C51.6719 20.112 51.6589 20.0599 51.6719 20.0469C51.6979 20.0208 51.6979 19.9948 51.6719 19.9688C51.7109 19.8646 51.7435 19.7995 51.7695 19.7734C51.7565 19.6432 51.7565 19.5716 51.7695 19.5586C51.7826 19.5456 51.7891 19.526 51.7891 19.5C51.763 19.3698 51.7565 19.2656 51.7695 19.1875C51.7956 19.0964 51.7956 18.9987 51.7695 18.8945C51.7305 18.7383 51.7174 18.6341 51.7305 18.582C51.7565 18.5169 51.7695 18.4518 51.7695 18.3867C51.7305 18.1914 51.7174 18.0547 51.7305 17.9766C51.7565 17.8984 51.776 17.8203 51.7891 17.7422C51.776 17.599 51.7695 17.5208 51.7695 17.5078C51.7826 17.4948 51.7891 17.4753 51.7891 17.4492C51.7891 17.3971 51.7826 17.3516 51.7695 17.3125C51.7565 17.2604 51.7565 17.2083 51.7695 17.1562C51.7826 17.013 51.8021 16.8958 51.8281 16.8047C51.8672 16.7005 51.8737 16.6419 51.8477 16.6289C51.8867 16.5247 51.8997 16.4206 51.8867 16.3164C51.8737 16.2122 51.8737 16.1081 51.8867 16.0039C51.8997 15.8867 51.8997 15.8216 51.8867 15.8086C51.8737 15.7826 51.8607 15.7565 51.8477 15.7305C51.8477 15.6784 51.8542 15.6263 51.8672 15.5742C51.8802 15.5091 51.8867 15.444 51.8867 15.3789C51.8346 15.1966 51.8086 15.0599 51.8086 14.9688C51.8086 14.8646 51.776 14.7734 51.7109 14.6953C51.6458 14.6042 51.5482 14.5651 51.418 14.5781C51.2878 14.5781 51.1771 14.5781 51.0859 14.5781C51.0339 14.5781 50.9818 14.5716 50.9297 14.5586C50.8776 14.5326 50.8255 14.5195 50.7734 14.5195C50.5911 14.5326 50.4674 14.526 50.4023 14.5C50.3372 14.4609 50.2656 14.4414 50.1875 14.4414C50.1615 14.4414 50.0833 14.4479 49.9531 14.4609C49.8229 14.4609 49.7448 14.4674 49.7188 14.4805C49.6927 14.4544 49.6602 14.4544 49.6211 14.4805C49.5951 14.4935 49.5625 14.5 49.5234 14.5C49.4062 14.487 49.3021 14.487 49.2109 14.5C49.1198 14.513 49.0612 14.5326 49.0352 14.5586C48.931 14.5586 48.8333 14.5716 48.7422 14.5977C48.651 14.6107 48.5924 14.6172 48.5664 14.6172C48.3581 14.5651 48.2279 14.5456 48.1758 14.5586C48.1237 14.5716 48.0651 14.5781 48 14.5781C47.9609 14.5781 47.9284 14.5716 47.9023 14.5586C47.8633 14.5456 47.8307 14.5326 47.8047 14.5195C47.7135 14.5195 47.6224 14.5326 47.5312 14.5586C47.4401 14.5716 47.349 14.5781 47.2578 14.5781C47.2708 14.7083 47.2708 14.7865 47.2578 14.8125C47.2448 14.8385 47.2318 14.8646 47.2188 14.8906C47.2188 14.9167 47.2253 14.9622 47.2383 15.0273C47.2383 15.0794 47.2448 15.1445 47.2578 15.2227C47.2578 15.2878 47.2643 15.3464 47.2773 15.3984C47.2904 15.4505 47.3034 15.4831 47.3164 15.4961C47.2773 15.5872 47.2643 15.6849 47.2773 15.7891C47.2773 15.8802 47.2773 15.9779 47.2773 16.082C47.3164 16.2643 47.3359 16.401 47.3359 16.4922C47.3229 16.5703 47.3034 16.6549 47.2773 16.7461C47.2253 16.7721 47.1862 16.8112 47.1602 16.8633C47.1341 16.9023 47.1081 16.9414 47.082 16.9805C47.0039 16.9935 46.9388 16.9935 46.8867 16.9805C46.8346 16.9544 46.763 16.987 46.6719 17.0781C46.5938 17.0651 46.5221 17.0651 46.457 17.0781C46.431 17.0521 46.4049 17.0326 46.3789 17.0195C46.3529 17.0065 46.3268 16.987 46.3008 16.9609C46.1966 16.8438 46.1315 16.7461 46.1055 16.668C46.0794 16.5768 46.0599 16.4857 46.0469 16.3945C46.112 16.3424 46.1445 16.2578 46.1445 16.1406C46.1315 16.0234 46.125 15.9323 46.125 15.8672C46.125 15.8411 46.1315 15.8086 46.1445 15.7695C46.1445 15.7305 46.1445 15.6914 46.1445 15.6523C46.1055 15.5352 46.0924 15.4701 46.1055 15.457C46.1185 15.431 46.1315 15.4049 46.1445 15.3789C46.1185 15.2357 46.112 15.1445 46.125 15.1055C46.138 15.0664 46.1445 15.0208 46.1445 14.9688C46.1315 14.8646 46.125 14.7734 46.125 14.6953C46.125 14.6042 46.112 14.5065 46.0859 14.4023C46.0729 14.3633 46.0599 14.3307 46.0469 14.3047C46.0208 14.2656 46.0078 14.2266 46.0078 14.1875C45.9948 14.1484 45.9948 14.1159 46.0078 14.0898C46.0208 14.0508 46.0208 14.0182 46.0078 13.9922C46.0339 13.9401 46.0729 13.901 46.125 13.875C46.1641 13.8359 46.2031 13.7904 46.2422 13.7383C46.3464 13.6732 46.4245 13.6406 46.4766 13.6406C46.5286 13.6406 46.5612 13.6211 46.5742 13.582C46.6523 13.5951 46.7305 13.6016 46.8086 13.6016C46.8867 13.5885 46.9583 13.6016 47.0234 13.6406C47.1406 13.6146 47.2188 13.6081 47.2578 13.6211C47.2839 13.6211 47.3099 13.6211 47.3359 13.6211C47.4661 13.6081 47.5443 13.6146 47.5703 13.6406C47.5833 13.6536 47.6094 13.6667 47.6484 13.6797C47.7266 13.6536 47.8047 13.6471 47.8828 13.6602C47.9609 13.6732 48.0456 13.6927 48.1367 13.7188C48.1497 13.7057 48.1823 13.6927 48.2344 13.6797C48.2995 13.6667 48.3646 13.6602 48.4297 13.6602C48.4948 13.6471 48.5534 13.6471 48.6055 13.6602C48.6576 13.6602 48.6901 13.6667 48.7031 13.6797C48.9505 13.6016 49.1458 13.569 49.2891 13.582C49.4453 13.582 49.6016 13.5755 49.7578 13.5625C49.7969 13.5625 49.8555 13.556 49.9336 13.543C50.0247 13.5299 50.1094 13.5234 50.1875 13.5234C50.2786 13.5234 50.3633 13.5299 50.4414 13.543C50.5195 13.543 50.5716 13.5625 50.5977 13.6016C50.6367 13.6016 50.6758 13.6016 50.7148 13.6016C50.7539 13.5885 50.793 13.5885 50.832 13.6016C50.9753 13.6406 51.0664 13.6536 51.1055 13.6406C51.1445 13.6276 51.1836 13.6211 51.2227 13.6211C51.3398 13.6211 51.444 13.6341 51.5352 13.6602C51.6263 13.6862 51.724 13.6667 51.8281 13.6016L52.043 13.6797C52.1862 13.6406 52.3294 13.6276 52.4727 13.6406C52.6159 13.6406 52.7591 13.6341 52.9023 13.6211C52.9284 13.6211 52.9674 13.6146 53.0195 13.6016C53.0846 13.5755 53.1302 13.582 53.1562 13.6211C53.2734 13.582 53.3451 13.5755 53.3711 13.6016C53.4102 13.6276 53.4427 13.6406 53.4688 13.6406C53.5339 13.6667 53.5859 13.6732 53.625 13.6602C53.6771 13.6341 53.7292 13.6211 53.7812 13.6211C53.8984 13.6602 54.0091 13.6862 54.1133 13.6992C54.2305 13.6992 54.3021 13.6992 54.3281 13.6992C54.4323 13.6602 54.4909 13.6471 54.5039 13.6602C54.5169 13.6732 54.5365 13.6797 54.5625 13.6797C54.6276 13.6667 54.6862 13.6471 54.7383 13.6211C54.7904 13.5951 54.849 13.6146 54.9141 13.6797C55.1094 13.6276 55.2135 13.6276 55.2266 13.6797C55.3438 13.6276 55.4674 13.6016 55.5977 13.6016C55.7279 13.5885 55.8516 13.582 55.9688 13.582C56.099 13.582 56.2096 13.582 56.3008 13.582C56.4049 13.582 56.4896 13.5625 56.5547 13.5234C56.6719 13.5625 56.7435 13.5755 56.7695 13.5625C56.7956 13.5495 56.8216 13.5495 56.8477 13.5625C57.0299 13.6406 57.1536 13.6667 57.2188 13.6406C57.2969 13.6146 57.3685 13.6016 57.4336 13.6016C57.5508 13.5365 57.6224 13.5169 57.6484 13.543C57.6875 13.556 57.7135 13.543 57.7266 13.5039C57.8958 13.569 58.0065 13.6276 58.0586 13.6797C58.1107 13.7188 58.1823 13.7383 58.2734 13.7383C58.2604 13.8034 58.2734 13.8424 58.3125 13.8555C58.3646 13.8685 58.4036 13.901 58.4297 13.9531C58.4427 14.0573 58.4557 14.168 58.4688 14.2852C58.4948 14.3893 58.4753 14.487 58.4102 14.5781C58.4362 14.6562 58.4557 14.7344 58.4688 14.8125C58.4818 14.8906 58.4688 14.9753 58.4297 15.0664C58.4557 15.0924 58.4753 15.1641 58.4883 15.2812C58.5143 15.3854 58.5339 15.444 58.5469 15.457C58.5339 15.5221 58.5143 15.5872 58.4883 15.6523C58.4753 15.7174 58.4948 15.7826 58.5469 15.8477C58.5078 15.9779 58.5078 16.0495 58.5469 16.0625C58.5859 16.0625 58.599 16.082 58.5859 16.1211ZM66.0664 23.3867C66.0404 23.4518 66.0339 23.5234 66.0469 23.6016C66.0599 23.6667 66.0599 23.7318 66.0469 23.7969C66.0208 23.862 65.9818 23.9206 65.9297 23.9727C65.8906 24.0117 65.8841 24.0703 65.9102 24.1484C65.8841 24.1745 65.8451 24.2135 65.793 24.2656C65.7409 24.3177 65.6888 24.3763 65.6367 24.4414C65.5846 24.4935 65.5391 24.5456 65.5 24.5977C65.4609 24.6497 65.4414 24.6823 65.4414 24.6953C65.3503 24.7214 65.2721 24.7669 65.207 24.832C65.1419 24.8841 65.0768 24.9427 65.0117 25.0078C64.9857 25.0208 64.9531 25.0339 64.9141 25.0469C64.875 25.0469 64.849 25.0664 64.8359 25.1055C64.7708 25.1055 64.7188 25.125 64.6797 25.1641C64.6536 25.2031 64.6146 25.2357 64.5625 25.2617C64.5104 25.2878 64.4648 25.3073 64.4258 25.3203C64.3867 25.3333 64.3411 25.3594 64.2891 25.3984C64.224 25.3854 64.1393 25.3919 64.0352 25.418C63.918 25.4701 63.8203 25.5221 63.7422 25.5742C63.6771 25.5482 63.6315 25.5482 63.6055 25.5742C63.5794 25.5872 63.5404 25.6068 63.4883 25.6328C63.3841 25.6328 63.319 25.6393 63.293 25.6523C63.2799 25.6654 63.2604 25.6784 63.2344 25.6914C63.1172 25.7435 63.0391 25.763 63 25.75C62.9609 25.737 62.9349 25.7565 62.9219 25.8086C62.8177 25.8086 62.7201 25.8151 62.6289 25.8281C62.5508 25.8281 62.4596 25.8216 62.3555 25.8086C62.2383 25.7956 62.1667 25.7956 62.1406 25.8086C62.1146 25.8216 62.0885 25.8281 62.0625 25.8281C62.0365 25.8281 61.9844 25.8346 61.9062 25.8477C61.8281 25.8477 61.737 25.8477 61.6328 25.8477C61.5417 25.8477 61.457 25.8477 61.3789 25.8477C61.3008 25.8346 61.2552 25.8281 61.2422 25.8281C61.0859 25.763 60.9818 25.7305 60.9297 25.7305C60.8776 25.7174 60.819 25.6979 60.7539 25.6719C60.7148 25.6589 60.6562 25.6328 60.5781 25.5938C60.513 25.5547 60.4414 25.5156 60.3633 25.4766C60.2852 25.4375 60.207 25.4049 60.1289 25.3789C60.0638 25.3398 60.0182 25.3073 59.9922 25.2812C59.8359 25.2031 59.7383 25.1315 59.6992 25.0664C59.6602 25.0013 59.5951 24.9622 59.5039 24.9492C59.5169 24.9232 59.4909 24.8841 59.4258 24.832C59.3737 24.7669 59.3411 24.7409 59.3281 24.7539C59.3281 24.6888 59.276 24.5846 59.1719 24.4414C59.0807 24.2852 59.0091 24.1875 58.957 24.1484C58.944 24.0443 58.9115 23.9661 58.8594 23.9141C58.8203 23.849 58.7682 23.7839 58.7031 23.7188C58.6901 23.6016 58.6576 23.4909 58.6055 23.3867C58.5534 23.2695 58.5273 23.1458 58.5273 23.0156C58.5143 22.9635 58.4948 22.931 58.4688 22.918C58.4557 22.9049 58.4427 22.8789 58.4297 22.8398C58.3906 22.6315 58.3711 22.5273 58.3711 22.5273C58.3581 22.3971 58.3451 22.332 58.332 22.332C58.319 22.319 58.3125 22.306 58.3125 22.293C58.2995 22.2539 58.293 22.2083 58.293 22.1562C58.293 22.0911 58.293 22.0456 58.293 22.0195C58.319 21.9023 58.3255 21.8307 58.3125 21.8047C58.3125 21.7786 58.3125 21.7526 58.3125 21.7266C58.3255 21.5833 58.319 21.4792 58.293 21.4141C58.2669 21.349 58.2799 21.2773 58.332 21.1992C58.306 21.082 58.2995 21.0169 58.3125 21.0039C58.3255 20.9779 58.332 20.9518 58.332 20.9258C58.332 20.7956 58.3385 20.7109 58.3516 20.6719C58.3776 20.6328 58.4036 20.5938 58.4297 20.5547C58.4427 20.5156 58.4622 20.457 58.4883 20.3789C58.5143 20.2878 58.5339 20.2227 58.5469 20.1836C58.5729 20.0664 58.5924 19.9427 58.6055 19.8125C58.6315 19.6693 58.6641 19.5391 58.7031 19.4219C58.7682 19.2526 58.8073 19.1549 58.8203 19.1289C58.8854 19.0247 58.9375 18.9336 58.9766 18.8555C59.0286 18.7643 59.0872 18.6862 59.1523 18.6211C59.1784 18.582 59.2044 18.5495 59.2305 18.5234C59.2695 18.4974 59.3021 18.4648 59.3281 18.4258C59.3802 18.3607 59.4193 18.3021 59.4453 18.25C59.4844 18.1979 59.543 18.1589 59.6211 18.1328C59.6602 18.0677 59.6862 18.0221 59.6992 17.9961C59.7122 17.957 59.7578 17.9245 59.8359 17.8984C59.9271 17.8333 59.9922 17.7617 60.0312 17.6836C60.0833 17.6055 60.1745 17.5534 60.3047 17.5273C60.3568 17.4622 60.4023 17.4102 60.4414 17.3711C60.4935 17.319 60.5651 17.2865 60.6562 17.2734C60.8125 17.1953 60.9036 17.1302 60.9297 17.0781C60.9557 17.026 61.0013 16.974 61.0664 16.9219C61.1315 16.9219 61.1836 16.9089 61.2227 16.8828C61.2617 16.8568 61.3073 16.8372 61.3594 16.8242C61.5417 16.7982 61.737 16.7917 61.9453 16.8047C62.1667 16.8047 62.3685 16.8047 62.5508 16.8047C62.7331 16.8438 62.8438 16.8568 62.8828 16.8438C62.9349 16.8177 62.9935 16.8177 63.0586 16.8438C63.1237 16.8698 63.1823 16.8958 63.2344 16.9219C63.2865 16.9479 63.3451 16.974 63.4102 17C63.5143 17 63.5924 17.0195 63.6445 17.0586C63.7096 17.0846 63.8008 17.0846 63.918 17.0586C64.0091 17.1237 64.0547 17.1628 64.0547 17.1758C64.0677 17.1888 64.0872 17.2018 64.1133 17.2148C64.2826 17.2669 64.4193 17.332 64.5234 17.4102C64.6276 17.4753 64.6992 17.5273 64.7383 17.5664C64.7643 17.6706 64.7904 17.7357 64.8164 17.7617C64.8424 17.7878 64.875 17.8073 64.9141 17.8203C64.9401 17.8594 64.9531 17.9049 64.9531 17.957C64.9531 18.0091 64.9857 18.0417 65.0508 18.0547C65.0378 18.1328 65.0443 18.1914 65.0703 18.2305C65.1094 18.2695 65.1419 18.3216 65.168 18.3867C65.2331 18.4779 65.2786 18.5495 65.3047 18.6016C65.3307 18.6406 65.3438 18.6927 65.3438 18.7578C65.3438 18.7839 65.3568 18.8164 65.3828 18.8555C65.4219 18.8815 65.4479 18.9076 65.4609 18.9336C65.5 19.0508 65.513 19.1159 65.5 19.1289C65.487 19.1419 65.487 19.1615 65.5 19.1875C65.526 19.2396 65.5521 19.2852 65.5781 19.3242C65.6042 19.3503 65.6237 19.3828 65.6367 19.4219C65.6628 19.487 65.6693 19.5521 65.6562 19.6172C65.6562 19.6823 65.6693 19.7474 65.6953 19.8125C65.7214 19.9036 65.7474 20.0013 65.7734 20.1055C65.7995 20.2096 65.832 20.3008 65.8711 20.3789C65.8711 20.5091 65.8776 20.5807 65.8906 20.5938C65.9036 20.5938 65.9102 20.6068 65.9102 20.6328C65.8971 20.6458 65.8776 20.6849 65.8516 20.75C65.8385 20.8021 65.8255 20.8281 65.8125 20.8281C65.8646 20.9323 65.8711 21.0169 65.832 21.082L65.6758 21.2578C65.6237 21.2708 65.5521 21.3099 65.4609 21.375C65.3828 21.4271 65.3372 21.4792 65.3242 21.5312C65.2201 21.5443 65.1484 21.5443 65.1094 21.5312C65.0833 21.5182 65.0508 21.5182 65.0117 21.5312C64.8945 21.5833 64.8099 21.6094 64.7578 21.6094C64.7057 21.6094 64.6471 21.6224 64.582 21.6484C64.543 21.6224 64.4974 21.6094 64.4453 21.6094C64.3932 21.6094 64.3477 21.6029 64.3086 21.5898C64.1914 21.5898 64.1263 21.5833 64.1133 21.5703C64.1003 21.5573 64.0807 21.5508 64.0547 21.5508C63.9896 21.5508 63.9245 21.5573 63.8594 21.5703C63.8073 21.5703 63.7487 21.5703 63.6836 21.5703C63.6445 21.5703 63.6055 21.5703 63.5664 21.5703C63.5404 21.5573 63.5078 21.5508 63.4688 21.5508C63.3776 21.5638 63.3125 21.5638 63.2734 21.5508C63.2344 21.5378 63.1953 21.5312 63.1562 21.5312C63.0781 21.5312 63 21.5378 62.9219 21.5508C62.8568 21.5638 62.7852 21.5703 62.707 21.5703C62.5117 21.5703 62.3164 21.5443 62.1211 21.4922C61.9258 21.4271 61.737 21.401 61.5547 21.4141C61.5286 21.4141 61.4961 21.4206 61.457 21.4336C61.418 21.4336 61.3854 21.4336 61.3594 21.4336C61.2422 21.3945 61.1706 21.3815 61.1445 21.3945C61.1185 21.4076 61.0924 21.4141 61.0664 21.4141C61.0013 21.4141 60.9362 21.4076 60.8711 21.3945C60.806 21.3685 60.7409 21.362 60.6758 21.375C60.6367 21.375 60.6042 21.3815 60.5781 21.3945C60.5521 21.3945 60.5195 21.401 60.4805 21.4141C60.4154 21.4271 60.3503 21.4271 60.2852 21.4141C60.2331 21.401 60.1745 21.3945 60.1094 21.3945C60.0052 21.3945 59.901 21.4076 59.7969 21.4336C59.7057 21.4466 59.6081 21.4466 59.5039 21.4336C59.4779 21.4727 59.4714 21.5182 59.4844 21.5703C59.4974 21.6224 59.5039 21.668 59.5039 21.707C59.5039 21.8633 59.5104 21.9609 59.5234 22C59.5365 22.0391 59.5495 22.0846 59.5625 22.1367C59.5755 22.1628 59.5755 22.2018 59.5625 22.2539C59.5625 22.293 59.569 22.3255 59.582 22.3516C59.5951 22.3906 59.6081 22.4297 59.6211 22.4688C59.6341 22.4948 59.6471 22.5208 59.6602 22.5469C59.6602 22.6771 59.6732 22.7943 59.6992 22.8984C59.7383 22.9896 59.7773 23.0872 59.8164 23.1914C59.8555 23.2956 59.8945 23.3932 59.9336 23.4844C59.9727 23.5755 60.0052 23.6276 60.0312 23.6406C60.0573 23.7057 60.0703 23.7708 60.0703 23.8359C60.0703 23.888 60.1094 23.9336 60.1875 23.9727C60.2526 24.0247 60.2917 24.0703 60.3047 24.1094C60.3177 24.1354 60.3372 24.1615 60.3633 24.1875C60.4154 24.2656 60.4479 24.3047 60.4609 24.3047C60.487 24.2917 60.513 24.3242 60.5391 24.4023C60.6953 24.4414 60.7865 24.4935 60.8125 24.5586C60.8516 24.5977 60.8776 24.6237 60.8906 24.6367C60.9167 24.6367 60.9427 24.6497 60.9688 24.6758C61.112 24.6497 61.2031 24.6562 61.2422 24.6953C61.2812 24.7344 61.3529 24.7669 61.457 24.793C61.5091 24.806 61.6068 24.8125 61.75 24.8125C61.8932 24.8125 62.043 24.8125 62.1992 24.8125C62.3555 24.7995 62.5052 24.7865 62.6484 24.7734C62.7917 24.7474 62.8893 24.7279 62.9414 24.7148C63.1628 24.6367 63.3385 24.5911 63.4688 24.5781C63.599 24.5521 63.7227 24.5065 63.8398 24.4414C63.957 24.3763 64.0352 24.3438 64.0742 24.3438C64.1263 24.3438 64.1784 24.3307 64.2305 24.3047C64.2565 24.2786 64.2695 24.2591 64.2695 24.2461C64.2826 24.2331 64.3346 24.2201 64.4258 24.207C64.4388 24.194 64.4714 24.1549 64.5234 24.0898C64.5755 24.0247 64.6276 23.9596 64.6797 23.8945C64.7448 23.8164 64.7969 23.7448 64.8359 23.6797C64.888 23.6146 64.9206 23.569 64.9336 23.543C64.9727 23.5039 65.0117 23.4714 65.0508 23.4453C65.1029 23.4062 65.1289 23.3542 65.1289 23.2891C65.2331 23.263 65.3047 23.1979 65.3438 23.0938C65.4089 23.0938 65.4674 23.0807 65.5195 23.0547C65.5716 23.0286 65.6302 23.0026 65.6953 22.9766C65.7474 22.9896 65.7865 23.0156 65.8125 23.0547C65.8385 23.0807 65.8776 23.1068 65.9297 23.1328C65.9557 23.1719 65.9753 23.2109 65.9883 23.25C66.0143 23.2891 66.0404 23.3346 66.0664 23.3867ZM64.8164 20.3984C64.8294 20.3073 64.8164 20.2292 64.7773 20.1641C64.7383 20.0859 64.7122 20.0013 64.6992 19.9102C64.6471 19.7799 64.6016 19.6562 64.5625 19.5391C64.5234 19.4089 64.4909 19.3177 64.4648 19.2656C64.4388 19.2135 64.4062 19.1745 64.3672 19.1484C64.3281 19.1224 64.3151 19.0768 64.3281 19.0117C64.3021 19.0117 64.25 18.9466 64.1719 18.8164C64.0938 18.6862 64.0482 18.6081 64.0352 18.582C63.9701 18.4779 63.9049 18.4128 63.8398 18.3867C63.8138 18.3607 63.7943 18.3281 63.7812 18.2891C63.7812 18.25 63.7552 18.224 63.7031 18.2109C63.612 18.1719 63.5273 18.1393 63.4492 18.1133C63.3711 18.0872 63.319 18.0547 63.293 18.0156C63.2409 18.0156 63.1953 18.0091 63.1562 17.9961C63.1302 17.9831 63.0977 17.9831 63.0586 17.9961C62.8633 17.8919 62.7201 17.8398 62.6289 17.8398C62.5508 17.8398 62.4661 17.8529 62.375 17.8789C62.349 17.8398 62.2839 17.8203 62.1797 17.8203C62.0885 17.8073 62.0234 17.8138 61.9844 17.8398C61.9453 17.8529 61.9062 17.8594 61.8672 17.8594C61.8281 17.8464 61.7891 17.8398 61.75 17.8398C61.724 17.8789 61.6849 17.8984 61.6328 17.8984C61.5938 17.8984 61.5612 17.9115 61.5352 17.9375C61.4701 17.9635 61.4115 18.0026 61.3594 18.0547C61.3203 18.0938 61.2617 18.1003 61.1836 18.0742C61.1315 18.1393 61.099 18.1719 61.0859 18.1719C61.0729 18.1719 61.0404 18.1849 60.9883 18.2109C60.9232 18.2891 60.8841 18.3281 60.8711 18.3281C60.8581 18.3281 60.8385 18.3346 60.8125 18.3477C60.7734 18.3737 60.7409 18.4128 60.7148 18.4648C60.7018 18.5039 60.6823 18.5365 60.6562 18.5625C60.6042 18.6276 60.5065 18.7383 60.3633 18.8945C60.2331 19.0378 60.1354 19.1289 60.0703 19.168C60.0443 19.2331 60.0182 19.2982 59.9922 19.3633C59.9661 19.4284 59.9271 19.4935 59.875 19.5586C59.8229 19.6628 59.7708 19.793 59.7188 19.9492C59.6797 20.1055 59.6667 20.1966 59.6797 20.2227C59.6927 20.2357 59.7253 20.2487 59.7773 20.2617C59.8424 20.2617 59.9141 20.2682 59.9922 20.2812C60.0703 20.2812 60.1419 20.2812 60.207 20.2812C60.2721 20.2812 60.3177 20.2812 60.3438 20.2812C60.5391 20.2292 60.6823 20.2096 60.7734 20.2227C60.8646 20.2227 60.9557 20.2096 61.0469 20.1836C61.1641 20.2357 61.2422 20.2487 61.2812 20.2227C61.3203 20.1966 61.3854 20.1836 61.4766 20.1836C61.5807 20.1836 61.6979 20.1966 61.8281 20.2227C61.9714 20.2487 62.056 20.2682 62.082 20.2812C62.3945 20.3464 62.6549 20.3984 62.8633 20.4375C63.0716 20.4635 63.2734 20.444 63.4688 20.3789C63.5078 20.418 63.5469 20.431 63.5859 20.418C63.625 20.4049 63.6706 20.3984 63.7227 20.3984C63.7357 20.4245 63.7682 20.4375 63.8203 20.4375C63.8724 20.4375 63.931 20.4375 63.9961 20.4375C64.0612 20.4245 64.1198 20.418 64.1719 20.418C64.237 20.4049 64.2826 20.3984 64.3086 20.3984C64.3867 20.3854 64.4714 20.3919 64.5625 20.418C64.6536 20.431 64.7383 20.4245 64.8164 20.3984ZM68.6055 19.4414C68.5143 19.3503 68.4688 19.2786 68.4688 19.2266C68.4036 19.2266 68.3646 19.2201 68.3516 19.207C68.3385 19.194 68.3125 19.168 68.2734 19.1289C68.1823 19.1029 68.1172 19.0898 68.0781 19.0898H67.8828C67.8177 19.1029 67.7591 19.1159 67.707 19.1289C67.6549 19.1289 67.6159 19.1354 67.5898 19.1484C67.4857 19.1354 67.4141 19.1029 67.375 19.0508C67.3229 19.0768 67.2904 19.0898 67.2773 19.0898C67.2643 19.0898 67.2318 19.0768 67.1797 19.0508L67.0039 18.875C66.8737 18.7839 66.7891 18.7253 66.75 18.6992C66.6979 18.6341 66.6849 18.569 66.7109 18.5039C66.737 18.4258 66.7565 18.3607 66.7695 18.3086C66.8086 18.2695 66.8477 18.237 66.8867 18.2109C66.9388 18.1719 66.9779 18.1263 67.0039 18.0742L67.2188 18.0547C67.4141 18.0807 67.5703 18.1003 67.6875 18.1133C67.8047 18.1263 67.8958 18.1068 67.9609 18.0547C68.0911 18.0807 68.1823 18.0938 68.2344 18.0938C68.2865 18.0807 68.3255 18.0872 68.3516 18.1133C68.4688 18.0612 68.5469 18.0352 68.5859 18.0352C68.6901 18.0482 68.7617 18.0612 68.8008 18.0742C68.8529 18.0742 68.9049 18.0612 68.957 18.0352C69.1393 17.9961 69.2565 17.9831 69.3086 17.9961C69.3607 17.9961 69.4062 18.0026 69.4453 18.0156C69.4844 18.0156 69.5299 18.0091 69.582 17.9961C69.6862 17.9701 69.7643 17.957 69.8164 17.957C69.8815 17.944 69.9661 17.9505 70.0703 17.9766C70.1354 18.0026 70.194 18.0221 70.2461 18.0352C70.3112 18.0482 70.3763 18.0547 70.4414 18.0547L70.5977 18.1719C70.6888 18.263 70.7409 18.3216 70.7539 18.3477C70.7669 18.3737 70.7865 18.3997 70.8125 18.4258C70.7995 18.4779 70.793 18.5299 70.793 18.582C70.793 18.6341 70.806 18.6862 70.832 18.7383C70.7279 18.8555 70.6497 18.9401 70.5977 18.9922C70.5195 18.9792 70.4414 18.9857 70.3633 19.0117C70.3372 19.0247 70.3047 19.0378 70.2656 19.0508C70.2266 19.0638 70.194 19.0703 70.168 19.0703C69.9727 19.0182 69.849 19.0182 69.7969 19.0703C69.7578 19.0833 69.7253 19.0898 69.6992 19.0898C69.6862 19.0898 69.6406 19.0964 69.5625 19.1094C69.6797 19.2396 69.7513 19.3112 69.7773 19.3242C69.8424 19.3763 69.8815 19.4089 69.8945 19.4219C69.9076 19.4219 69.9206 19.4284 69.9336 19.4414L70.0703 19.6367C70.1745 19.7669 70.2526 19.8581 70.3047 19.9102C70.3568 19.9622 70.4349 20.0208 70.5391 20.0859C70.6042 20.2161 70.6302 20.2812 70.6172 20.2812C70.7474 20.4375 70.8451 20.5221 70.9102 20.5352C70.9232 20.6393 70.9622 20.6979 71.0273 20.7109C71.0664 20.8411 71.0924 20.9128 71.1055 20.9258C71.1315 20.9388 71.1706 20.9583 71.2227 20.9844C71.3529 21.1016 71.418 21.1602 71.418 21.1602C71.4961 21.1862 71.5417 21.2122 71.5547 21.2383C71.5677 21.2513 71.5872 21.2969 71.6133 21.375C71.6523 21.3099 71.6784 21.2708 71.6914 21.2578C71.7044 21.2448 71.724 21.2318 71.75 21.2188C71.7891 21.1797 71.8346 21.1536 71.8867 21.1406C71.9388 21.1146 71.9779 21.0755 72.0039 21.0234C72.082 21.0234 72.1406 21.0039 72.1797 20.9648C72.2318 20.9258 72.2773 20.8802 72.3164 20.8281C72.4727 20.75 72.5638 20.6719 72.5898 20.5938C72.7201 20.5156 72.8242 20.457 72.9023 20.418C72.9805 20.3789 73.0456 20.3203 73.0977 20.2422C73.2018 20.2031 73.2604 20.1771 73.2734 20.1641C73.2995 20.138 73.3255 20.112 73.3516 20.0859C73.4688 20.0078 73.5534 19.9297 73.6055 19.8516C73.7096 19.7474 73.7747 19.6823 73.8008 19.6562C73.8789 19.6042 73.918 19.5456 73.918 19.4805C74.0221 19.4414 74.1068 19.4023 74.1719 19.3633C74.25 19.3112 74.3021 19.2526 74.3281 19.1875C74.4193 19.1354 74.4844 19.0703 74.5234 18.9922C74.5234 18.9271 74.4974 18.888 74.4453 18.875C74.4062 18.862 74.3672 18.8555 74.3281 18.8555C74.25 18.8294 74.1849 18.8164 74.1328 18.8164C74.0938 18.8034 74.0482 18.7969 73.9961 18.7969H73.7227C73.6185 18.7448 73.5469 18.7188 73.5078 18.7188C73.4167 18.6276 73.3385 18.5951 73.2734 18.6211C73.2474 18.569 73.1953 18.5169 73.1172 18.4648C73.0781 18.2826 73.0586 18.1328 73.0586 18.0156C73.0977 17.9766 73.1432 17.9505 73.1953 17.9375C73.2604 17.9245 73.3255 17.9049 73.3906 17.8789C73.4818 17.8659 73.5469 17.8594 73.5859 17.8594C73.625 17.8464 73.6641 17.8398 73.7031 17.8398C73.8333 17.8529 73.8984 17.8659 73.8984 17.8789C73.9115 17.8789 73.931 17.8789 73.957 17.8789C74.0612 17.8919 74.1589 17.8919 74.25 17.8789C74.3542 17.8529 74.4583 17.8464 74.5625 17.8594L74.8164 17.8789C74.9076 17.8659 74.9727 17.8659 75.0117 17.8789C75.0898 17.918 75.1745 17.931 75.2656 17.918C75.3568 17.9049 75.4284 17.8919 75.4805 17.8789C75.5977 17.8398 75.7148 17.8203 75.832 17.8203C76.0404 17.7682 76.1966 17.7487 76.3008 17.7617C76.4049 17.7747 76.5091 17.7552 76.6133 17.7031C76.7435 17.6901 76.8281 17.6771 76.8672 17.6641C76.9974 17.6901 77.082 17.6966 77.1211 17.6836C77.1732 17.6706 77.2318 17.6641 77.2969 17.6641C77.3229 17.6641 77.3555 17.6706 77.3945 17.6836C77.4336 17.6966 77.4661 17.7031 77.4922 17.7031C77.5964 17.6641 77.6549 17.6445 77.668 17.6445C77.694 17.6315 77.7331 17.6315 77.7852 17.6445C77.8503 17.6836 77.9284 17.7031 78.0195 17.7031L78.1562 17.8594C78.2344 17.9375 78.306 17.9961 78.3711 18.0352C78.3841 18.1263 78.3776 18.2044 78.3516 18.2695C78.3385 18.3346 78.319 18.4062 78.293 18.4844C78.1758 18.5625 78.1172 18.6211 78.1172 18.6602C78.0521 18.6862 77.9935 18.6992 77.9414 18.6992C77.9023 18.6992 77.8503 18.7122 77.7852 18.7383L77.5703 18.6797C77.5052 18.6536 77.4531 18.6471 77.4141 18.6602C77.388 18.6602 77.3424 18.6667 77.2773 18.6797C77.1211 18.6797 77.0169 18.6862 76.9648 18.6992C76.9128 18.6992 76.8607 18.7122 76.8086 18.7383C76.7435 18.7513 76.6719 18.7643 76.5938 18.7773C76.5286 18.7773 76.444 18.7839 76.3398 18.7969C76.3789 18.875 76.3919 18.9271 76.3789 18.9531C76.3659 18.9792 76.3398 19.0312 76.3008 19.1094C76.1836 19.1615 76.0859 19.2331 76.0078 19.3242C75.9427 19.4023 75.8971 19.4674 75.8711 19.5195C75.7539 19.6107 75.6888 19.6758 75.6758 19.7148C75.5716 19.7409 75.487 19.7865 75.4219 19.8516C75.3568 19.9036 75.2917 19.9622 75.2266 20.0273C75.2005 20.0534 75.1745 20.0729 75.1484 20.0859C75.1224 20.099 75.0898 20.112 75.0508 20.125C75.0117 20.2031 74.9661 20.2682 74.9141 20.3203C74.7839 20.3854 74.6797 20.4505 74.6016 20.5156C74.5234 20.5677 74.4388 20.6263 74.3477 20.6914C74.2695 20.7565 74.1914 20.8216 74.1133 20.8867C74.0482 20.9518 74.0026 21.0039 73.9766 21.043C73.9115 21.069 73.8398 21.1016 73.7617 21.1406C73.6966 21.1797 73.651 21.2383 73.625 21.3164C73.5339 21.3555 73.4818 21.3815 73.4688 21.3945C73.4688 21.3945 73.4492 21.388 73.4102 21.375C73.3711 21.4271 73.332 21.4922 73.293 21.5703C73.1888 21.6745 73.1302 21.7331 73.1172 21.7461C73.0911 21.7461 73.0586 21.7526 73.0195 21.7656C72.9805 21.7786 72.9414 21.7917 72.9023 21.8047L72.8047 22C72.7266 22.013 72.681 22.0326 72.668 22.0586C72.668 22.0846 72.6549 22.1107 72.6289 22.1367C72.5508 22.2669 72.5378 22.3581 72.5898 22.4102C72.694 22.5013 72.7656 22.5664 72.8047 22.6055C72.8438 22.6836 72.8893 22.7552 72.9414 22.8203C72.9935 22.8724 73.0521 22.9115 73.1172 22.9375C73.1432 22.9896 73.2083 23.0547 73.3125 23.1328C73.4297 23.2109 73.5078 23.25 73.5469 23.25C73.638 23.3411 73.6901 23.4388 73.7031 23.543C73.7552 23.5951 73.8008 23.6406 73.8398 23.6797C73.8919 23.7188 73.9375 23.7578 73.9766 23.7969C73.9766 23.862 74.0156 23.9206 74.0938 23.9727C74.0807 24.0378 74.1068 24.0898 74.1719 24.1289C74.237 24.1549 74.2891 24.1745 74.3281 24.1875C74.3802 24.2526 74.4062 24.3177 74.4062 24.3828C74.4714 24.3958 74.5169 24.4089 74.543 24.4219C74.569 24.4219 74.6016 24.4349 74.6406 24.4609C74.6667 24.513 74.6797 24.5521 74.6797 24.5781C74.6927 24.6042 74.7122 24.6302 74.7383 24.6562L74.8945 24.8125C74.9987 24.8385 75.0508 24.8581 75.0508 24.8711C75.0638 24.8841 75.0703 24.8971 75.0703 24.9102C75.1354 25.0143 75.1875 25.0794 75.2266 25.1055C75.2656 25.1315 75.3112 25.1576 75.3633 25.1836C75.3763 25.2227 75.4089 25.2812 75.4609 25.3594C75.5781 25.3464 75.7018 25.3659 75.832 25.418C75.9883 25.3789 76.0859 25.3398 76.125 25.3008C76.2682 25.2878 76.4049 25.2878 76.5352 25.3008C76.6654 25.3138 76.8021 25.3203 76.9453 25.3203C77.0885 25.3464 77.1667 25.3659 77.1797 25.3789C77.2318 25.431 77.2773 25.4831 77.3164 25.5352C77.3555 25.5872 77.3945 25.6393 77.4336 25.6914L77.2383 25.75C77.3294 25.8411 77.3685 25.9062 77.3555 25.9453C77.3555 25.9844 77.3359 26.0495 77.2969 26.1406C77.2448 26.2188 77.1797 26.2839 77.1016 26.3359C77.0234 26.375 76.9714 26.3945 76.9453 26.3945C76.7891 26.3555 76.6849 26.3424 76.6328 26.3555C76.5417 26.3685 76.4635 26.3685 76.3984 26.3555C76.3203 26.3294 76.2552 26.3359 76.2031 26.375L75.9102 26.3945C75.7799 26.3555 75.7083 26.3424 75.6953 26.3555L75.5 26.3359C75.4219 26.3229 75.3503 26.3294 75.2852 26.3555L75.0898 26.3164C74.9857 26.3555 74.9206 26.3555 74.8945 26.3164C74.7513 26.3424 74.6602 26.3294 74.6211 26.2773C74.5039 26.3164 74.4323 26.3359 74.4062 26.3359C74.3932 26.3359 74.3802 26.3424 74.3672 26.3555C74.25 26.3555 74.1654 26.3555 74.1133 26.3555C74.0612 26.3555 74.0026 26.3555 73.9375 26.3555L73.7422 26.3945C73.599 26.4336 73.4688 26.4531 73.3516 26.4531C73.2344 26.4401 73.1367 26.4661 73.0586 26.5312C72.9544 26.5312 72.8438 26.5312 72.7266 26.5312C72.6094 26.5312 72.4987 26.5182 72.3945 26.4922C72.3685 26.4401 72.3294 26.3945 72.2773 26.3555C72.2383 26.3164 72.1927 26.2773 72.1406 26.2383C72.1016 26.1992 72.0625 26.1602 72.0234 26.1211C71.9974 26.082 71.9844 26.043 71.9844 26.0039C72.0234 25.9258 72.043 25.8477 72.043 25.7695C72.1211 25.6654 72.1667 25.6133 72.1797 25.6133C72.1927 25.6133 72.2057 25.6003 72.2188 25.5742C72.2969 25.5742 72.3555 25.5742 72.3945 25.5742C72.4466 25.5612 72.4857 25.5482 72.5117 25.5352C72.6419 25.4961 72.7135 25.4831 72.7266 25.4961C72.7526 25.5091 72.7786 25.5156 72.8047 25.5156C72.9089 25.4896 72.974 25.4701 73 25.457L73.2148 25.4766C73.306 25.4766 73.3776 25.4701 73.4297 25.457C73.4818 25.444 73.5339 25.431 73.5859 25.418C73.6771 25.3268 73.7161 25.2682 73.7031 25.2422C73.6901 25.2161 73.6771 25.1901 73.6641 25.1641C73.5078 25.0078 73.3906 24.8841 73.3125 24.793C73.2474 24.6888 73.1628 24.6042 73.0586 24.5391L72.9609 24.3633C72.9089 24.2591 72.8698 24.207 72.8438 24.207C72.8307 24.194 72.8112 24.1745 72.7852 24.1484C72.694 24.0443 72.6484 23.9792 72.6484 23.9531C72.5443 23.9271 72.4661 23.888 72.4141 23.8359C72.375 23.7708 72.3164 23.7188 72.2383 23.6797C72.2253 23.5755 72.1667 23.4909 72.0625 23.4258C72.0234 23.3216 71.9779 23.25 71.9258 23.2109C71.8216 23.1198 71.7565 23.0547 71.7305 23.0156C71.6523 22.9115 71.5547 22.8659 71.4375 22.8789C71.3984 22.8919 71.3398 22.9375 71.2617 23.0156C71.1836 23.0807 71.1315 23.1328 71.1055 23.1719C71.0404 23.1979 70.9818 23.2305 70.9297 23.2695C70.8906 23.2956 70.8385 23.3216 70.7734 23.3477L70.5977 23.5234C70.5456 23.5755 70.487 23.6081 70.4219 23.6211C70.3698 23.6862 70.2982 23.7643 70.207 23.8555C70.1159 23.9336 70.0378 23.9857 69.9727 24.0117C69.8685 24.0898 69.8099 24.1484 69.7969 24.1875L69.6211 24.3438C69.569 24.3698 69.5365 24.4023 69.5234 24.4414C69.5104 24.4674 69.4909 24.4935 69.4648 24.5195C69.2956 24.5846 69.2109 24.6497 69.2109 24.7148C69.1719 24.7799 69.1393 24.819 69.1133 24.832C69.1003 24.832 69.0807 24.8451 69.0547 24.8711C68.8984 24.9883 68.7812 25.0859 68.7031 25.1641C68.625 25.2292 68.5664 25.3073 68.5273 25.3984C68.6706 25.4505 68.7943 25.457 68.8984 25.418C68.9245 25.444 68.957 25.457 68.9961 25.457C69.0352 25.444 69.0677 25.4375 69.0938 25.4375C69.2109 25.4115 69.2891 25.3984 69.3281 25.3984C69.3672 25.3854 69.3997 25.4115 69.4258 25.4766C69.5039 25.4505 69.569 25.4375 69.6211 25.4375C69.6992 25.5286 69.7383 25.5807 69.7383 25.5938C69.7383 25.5938 69.7448 25.6003 69.7578 25.6133C69.8359 25.6263 69.888 25.6849 69.9141 25.7891L69.9336 26.0625L69.8359 26.2969C69.7578 26.3359 69.6927 26.3945 69.6406 26.4727C69.5104 26.4727 69.3867 26.4792 69.2695 26.4922C69.1654 26.5052 69.0612 26.5117 68.957 26.5117C68.8529 26.4987 68.7617 26.5052 68.6836 26.5312C68.5013 26.5182 68.3971 26.5247 68.3711 26.5508C68.2018 26.5508 68.0456 26.5573 67.9023 26.5703C67.7721 26.5703 67.6419 26.5378 67.5117 26.4727C67.4596 26.5247 67.3685 26.5508 67.2383 26.5508C67.1732 26.5378 67.1146 26.5312 67.0625 26.5312C67.0104 26.5182 66.9583 26.5117 66.9062 26.5117C66.8542 26.5117 66.8086 26.5182 66.7695 26.5312C66.7305 26.5443 66.6849 26.5508 66.6328 26.5508C66.5677 26.5508 66.5026 26.5508 66.4375 26.5508C66.3854 26.5378 66.3333 26.5638 66.2812 26.6289L66.0469 26.6484C65.9167 26.5833 65.832 26.5573 65.793 26.5703C65.6628 26.5052 65.5846 26.4727 65.5586 26.4727C65.5326 26.4336 65.5065 26.3945 65.4805 26.3555C65.4544 26.3164 65.4219 26.2839 65.3828 26.2578C65.3698 26.1927 65.3633 26.1276 65.3633 26.0625C65.3633 25.9974 65.3633 25.9323 65.3633 25.8672C65.4023 25.7891 65.4479 25.737 65.5 25.7109C65.5391 25.6849 65.5716 25.6523 65.5977 25.6133C65.6888 25.5872 65.7734 25.5677 65.8516 25.5547C65.9167 25.5286 65.9948 25.5286 66.0859 25.5547C66.1901 25.5938 66.2682 25.6003 66.3203 25.5742C66.3724 25.5742 66.418 25.5742 66.457 25.5742C66.4961 25.5742 66.5352 25.5612 66.5742 25.5352C66.7174 25.5482 66.8086 25.5352 66.8477 25.4961C67.0039 25.4049 67.0951 25.3398 67.1211 25.3008C67.2643 25.1576 67.362 25.0469 67.4141 24.9688C67.4792 24.8906 67.5573 24.819 67.6484 24.7539C67.7005 24.6628 67.7331 24.6042 67.7461 24.5781C67.8112 24.5521 67.8633 24.513 67.9023 24.4609C67.9414 24.4089 68.0065 24.3763 68.0977 24.3633C68.1628 24.2721 68.2148 24.207 68.2539 24.168C68.332 24.1159 68.3711 24.0833 68.3711 24.0703C68.3841 24.0573 68.3971 24.0378 68.4102 24.0117C68.5143 23.9336 68.5859 23.875 68.625 23.8359C68.6641 23.7969 68.7096 23.7578 68.7617 23.7188L68.8789 23.5625C68.957 23.4583 69.0221 23.3932 69.0742 23.3672C69.1914 23.2891 69.263 23.237 69.2891 23.2109C69.3281 23.1719 69.3672 23.1328 69.4062 23.0938L69.5625 22.8984C69.6536 22.8203 69.7253 22.7878 69.7773 22.8008C69.9466 22.6706 70.0573 22.5664 70.1094 22.4883L70.2852 22.3516C70.4284 22.2734 70.5326 22.1628 70.5977 22.0195C70.6628 21.8763 70.5911 21.7461 70.3828 21.6289C70.3568 21.5768 70.3242 21.5312 70.2852 21.4922C70.2591 21.4531 70.2266 21.4076 70.1875 21.3555C70.0964 21.2643 70.0443 21.2122 70.0312 21.1992C69.9661 21.0951 69.9141 21.0299 69.875 21.0039C69.849 20.9648 69.8164 20.9128 69.7773 20.8477C69.7253 20.7565 69.6862 20.6979 69.6602 20.6719C69.6341 20.6458 69.5951 20.6263 69.543 20.6133C69.4648 20.5091 69.4193 20.4505 69.4062 20.4375C69.4062 20.4245 69.4062 20.3919 69.4062 20.3398C69.3151 20.2747 69.2565 20.2422 69.2305 20.2422C69.1393 20.125 69.0872 20.0664 69.0742 20.0664C69.0742 20.0664 69.0742 20.0534 69.0742 20.0273L68.9375 19.8711C68.8724 19.793 68.8268 19.7409 68.8008 19.7148C68.7357 19.6628 68.6966 19.6302 68.6836 19.6172C68.6836 19.6042 68.6771 19.5846 68.6641 19.5586L68.6055 19.4414ZM83.8789 25.1641C83.9049 25.2552 83.9049 25.3398 83.8789 25.418C83.8659 25.4831 83.8594 25.5612 83.8594 25.6523C83.7031 25.7305 83.5859 25.7891 83.5078 25.8281C83.4427 25.8542 83.3776 25.8737 83.3125 25.8867C83.1693 25.8867 83.0781 25.8997 83.0391 25.9258C83 25.9518 82.9479 25.9648 82.8828 25.9648C82.8438 25.9648 82.8047 25.9583 82.7656 25.9453C82.7396 25.9323 82.707 25.9258 82.668 25.9258C82.5247 25.9128 82.4466 25.9062 82.4336 25.9062C82.3685 25.9193 82.3034 25.9128 82.2383 25.8867C82.1732 25.8477 82.1146 25.8216 82.0625 25.8086C82.0365 25.7956 82.0039 25.7956 81.9648 25.8086C81.9258 25.8086 81.8932 25.8021 81.8672 25.7891L81.7109 25.6719C81.6849 25.6458 81.6523 25.6328 81.6133 25.6328C81.5872 25.6198 81.5677 25.5938 81.5547 25.5547C81.5156 25.5547 81.457 25.5417 81.3789 25.5156C81.3008 25.4766 81.2161 25.4375 81.125 25.3984C81.0339 25.3594 80.9557 25.3203 80.8906 25.2812C80.8385 25.2292 80.8125 25.1901 80.8125 25.1641C80.7604 25.1771 80.6628 25.1315 80.5195 25.0273C80.3893 24.9232 80.3047 24.8516 80.2656 24.8125C80.2135 24.7214 80.1875 24.6693 80.1875 24.6562C80.1875 24.6302 80.168 24.6107 80.1289 24.5977C80.1419 24.5065 80.1159 24.4023 80.0508 24.2852C80.0508 24.1289 80.0052 23.9401 79.9141 23.7188C79.8229 23.4974 79.7643 23.3021 79.7383 23.1328C79.7253 23.0547 79.7122 22.9831 79.6992 22.918C79.6992 22.8398 79.6927 22.7617 79.6797 22.6836C79.6276 22.6185 79.6081 22.5208 79.6211 22.3906C79.6471 22.2604 79.6276 22.1628 79.5625 22.0977C79.5755 21.9674 79.5495 21.8242 79.4844 21.668C79.5495 21.5508 79.5625 21.4401 79.5234 21.3359C79.4974 21.2188 79.4714 21.1081 79.4453 21.0039C79.4193 20.8867 79.4062 20.7695 79.4062 20.6523C79.4193 20.5221 79.4128 20.4049 79.3867 20.3008C79.3607 20.1966 79.3477 20.1315 79.3477 20.1055C79.3607 20.0794 79.3672 20.0534 79.3672 20.0273C79.3672 19.9622 79.3607 19.8971 79.3477 19.832C79.3346 19.7539 79.3281 19.6758 79.3281 19.5977C79.3411 19.4805 79.3411 19.4154 79.3281 19.4023C79.3281 19.3893 79.3281 19.3698 79.3281 19.3438C79.3802 19.0833 79.4062 18.8815 79.4062 18.7383C79.4062 18.5951 79.4193 18.4518 79.4453 18.3086C79.4714 18.1393 79.5104 17.9766 79.5625 17.8203C79.6146 17.651 79.6536 17.4818 79.6797 17.3125C79.6146 17.2865 79.543 17.2799 79.4648 17.293C79.3867 17.306 79.3151 17.306 79.25 17.293C79.0677 17.2279 78.9375 17.1953 78.8594 17.1953C78.7943 17.1823 78.7292 17.1758 78.6641 17.1758C78.599 17.1758 78.5404 17.1823 78.4883 17.1953C78.4492 17.2083 78.3971 17.2148 78.332 17.2148C78.1888 17.2018 78.0977 17.2018 78.0586 17.2148C78.0326 17.2279 78 17.2279 77.9609 17.2148C77.7656 17.1758 77.6289 17.1628 77.5508 17.1758C77.4727 17.1888 77.401 17.1823 77.3359 17.1562C77.2578 17.1302 77.1536 17.0911 77.0234 17.0391C76.8932 16.974 76.8151 16.9023 76.7891 16.8242C76.8021 16.7982 76.8216 16.7721 76.8477 16.7461C76.8607 16.707 76.8737 16.6745 76.8867 16.6484C76.8477 16.5573 76.8542 16.4792 76.9062 16.4141C76.9583 16.3359 77.0299 16.3034 77.1211 16.3164C77.1732 16.1732 77.2318 16.1146 77.2969 16.1406C77.349 16.1667 77.4141 16.1602 77.4922 16.1211C77.5573 16.1211 77.6224 16.1276 77.6875 16.1406C77.7526 16.1536 77.8112 16.1341 77.8633 16.082C77.9414 16.1081 78.0195 16.1276 78.0977 16.1406C78.1758 16.1536 78.2539 16.1602 78.332 16.1602C78.3971 16.1602 78.4622 16.1536 78.5273 16.1406C78.5924 16.1146 78.6576 16.1081 78.7227 16.1211C78.7487 16.1211 78.8008 16.1211 78.8789 16.1211C78.957 16.1081 79.0417 16.1081 79.1328 16.1211C79.237 16.1211 79.3346 16.1276 79.4258 16.1406C79.5169 16.1406 79.582 16.1341 79.6211 16.1211C79.6471 16.056 79.6536 15.9974 79.6406 15.9453C79.6406 15.8802 79.6406 15.8151 79.6406 15.75C79.6406 15.7109 79.6536 15.6393 79.6797 15.5352C79.7057 15.431 79.7318 15.3203 79.7578 15.2031C79.7839 15.0729 79.8099 14.9622 79.8359 14.8711C79.862 14.7669 79.888 14.7083 79.9141 14.6953C79.901 14.6823 79.8945 14.6432 79.8945 14.5781C79.8945 14.513 79.8945 14.4479 79.8945 14.3828C79.9076 14.3047 79.9206 14.2331 79.9336 14.168C79.9466 14.1029 79.9531 14.0573 79.9531 14.0312C79.9792 13.9401 80.0052 13.8555 80.0312 13.7773C80.0703 13.6992 80.0964 13.6146 80.1094 13.5234C80.1875 13.4714 80.2396 13.3802 80.2656 13.25C80.3307 13.224 80.3763 13.1849 80.4023 13.1328C80.4284 13.0807 80.4609 13.0417 80.5 13.0156C80.5911 12.9635 80.6497 12.9375 80.6758 12.9375C80.7148 12.9375 80.7344 12.9245 80.7344 12.8984C80.7865 12.8984 80.8581 12.9375 80.9492 13.0156C81.0404 13.0807 81.099 13.1328 81.125 13.1719C81.151 13.2109 81.1641 13.2565 81.1641 13.3086C81.1771 13.3477 81.1966 13.3802 81.2227 13.4062C81.2096 13.4974 81.2031 13.582 81.2031 13.6602C81.2031 13.7383 81.1966 13.8229 81.1836 13.9141C81.1445 14.0703 81.125 14.168 81.125 14.207C81.138 14.2461 81.138 14.2786 81.125 14.3047C81.0859 14.3828 81.0664 14.4284 81.0664 14.4414C81.0794 14.4544 81.0859 14.474 81.0859 14.5C81.0599 14.5781 81.0404 14.6628 81.0273 14.7539C81.0273 14.8451 81.0143 14.9362 80.9883 15.0273C80.9753 15.0664 80.9557 15.1055 80.9297 15.1445C80.9167 15.1836 80.9036 15.2227 80.8906 15.2617C80.8906 15.3008 80.8776 15.3919 80.8516 15.5352C80.8385 15.6654 80.832 15.75 80.832 15.7891C80.8581 15.9323 80.8646 16.0234 80.8516 16.0625C80.8516 16.0885 80.8581 16.1146 80.8711 16.1406C80.8971 16.1667 80.9688 16.1862 81.0859 16.1992C81.2031 16.2122 81.3333 16.2253 81.4766 16.2383C81.6198 16.2513 81.7565 16.2643 81.8867 16.2773C82.0169 16.2773 82.1016 16.2773 82.1406 16.2773C82.1536 16.2904 82.2383 16.2969 82.3945 16.2969C82.5638 16.2969 82.6745 16.3099 82.7266 16.3359C82.8047 16.4141 82.8568 16.4531 82.8828 16.4531C82.9089 16.4531 82.9349 16.4661 82.9609 16.4922C83.0521 16.5964 83.1042 16.6549 83.1172 16.668C83.2083 16.7852 83.2474 16.8893 83.2344 16.9805C83.2214 17.0716 83.2018 17.1367 83.1758 17.1758C83.1497 17.2018 83.1042 17.2344 83.0391 17.2734C82.987 17.2995 82.9219 17.332 82.8438 17.3711C82.7656 17.4102 82.6875 17.4427 82.6094 17.4688C82.5443 17.4948 82.4987 17.5078 82.4727 17.5078C82.4466 17.5078 82.388 17.5078 82.2969 17.5078C82.2188 17.4948 82.1341 17.4883 82.043 17.4883C81.9518 17.4753 81.8607 17.4622 81.7695 17.4492C81.6914 17.4362 81.6458 17.4232 81.6328 17.4102C81.5026 17.4622 81.3789 17.4688 81.2617 17.4297C81.1576 17.3906 81.0339 17.3711 80.8906 17.3711C80.8255 17.5273 80.7799 17.651 80.7539 17.7422C80.7279 17.8333 80.7083 17.9049 80.6953 17.957C80.6693 18.0742 80.6562 18.1654 80.6562 18.2305C80.6562 18.2956 80.6497 18.3672 80.6367 18.4453C80.6367 18.5104 80.6302 18.5755 80.6172 18.6406C80.6042 18.7057 80.5911 18.7448 80.5781 18.7578C80.5781 19.1224 80.5846 19.4349 80.5977 19.6953C80.6107 19.9427 80.6237 20.1966 80.6367 20.457C80.7018 20.5612 80.7214 20.6914 80.6953 20.8477L80.7539 21.2773C80.7669 21.3815 80.7799 21.4727 80.793 21.5508C80.806 21.6159 80.8125 21.6745 80.8125 21.7266C80.7995 21.8047 80.7995 21.8568 80.8125 21.8828C80.8255 21.8958 80.832 21.9154 80.832 21.9414C80.832 21.9674 80.8255 22 80.8125 22.0391C80.8125 22.0651 80.819 22.0977 80.832 22.1367C80.8451 22.1758 80.8581 22.2148 80.8711 22.2539C80.8841 22.293 80.8906 22.3385 80.8906 22.3906C80.9036 22.4297 80.9102 22.4753 80.9102 22.5273C80.9102 22.5664 80.9167 22.612 80.9297 22.6641C80.9427 22.7292 80.9622 22.7878 80.9883 22.8398C81.0143 22.8789 81.0404 22.9245 81.0664 22.9766L81.1055 23.1719C81.1315 23.263 81.151 23.3542 81.1641 23.4453C81.1771 23.5234 81.2031 23.6016 81.2422 23.6797C81.2161 23.6797 81.2292 23.7383 81.2812 23.8555C81.3333 23.9596 81.3659 24.0247 81.3789 24.0508C81.444 24.0898 81.5091 24.1289 81.5742 24.168C81.6393 24.207 81.6914 24.2591 81.7305 24.3242C81.8997 24.4154 82.0234 24.474 82.1016 24.5C82.1927 24.526 82.2708 24.5521 82.3359 24.5781C82.401 24.6042 82.4531 24.6367 82.4922 24.6758C82.5443 24.7018 82.6029 24.7279 82.668 24.7539C82.7721 24.7799 82.9219 24.806 83.1172 24.832C83.3255 24.8451 83.4883 24.8646 83.6055 24.8906C83.7487 25.0208 83.8398 25.112 83.8789 25.1641ZM96.0859 25.8086C96.0599 25.9128 96.0273 26.0039 95.9883 26.082C95.9492 26.1471 95.9167 26.2188 95.8906 26.2969C95.8255 26.3229 95.7604 26.3555 95.6953 26.3945C95.6432 26.4206 95.5781 26.4206 95.5 26.3945C95.3177 26.4206 95.1615 26.4401 95.0312 26.4531C94.9141 26.4531 94.8164 26.4336 94.7383 26.3945C94.6211 26.4206 94.543 26.4271 94.5039 26.4141C94.4779 26.388 94.4453 26.3815 94.4062 26.3945C94.1979 26.3815 94.0612 26.3945 93.9961 26.4336C93.931 26.4596 93.8529 26.4922 93.7617 26.5312C93.6706 26.4922 93.6185 26.4792 93.6055 26.4922C93.5924 26.5052 93.5729 26.5117 93.5469 26.5117L93.3711 26.3945C93.3451 26.3815 93.3125 26.362 93.2734 26.3359C93.2344 26.3099 93.2018 26.2904 93.1758 26.2773C93.2018 26.1992 93.1823 26.1341 93.1172 26.082C93.0651 26.0299 93.026 25.9714 93 25.9062C93.013 25.8672 93.0195 25.8281 93.0195 25.7891C93.0195 25.75 93.026 25.7109 93.0391 25.6719C93 25.5938 92.987 25.5417 93 25.5156C93.013 25.4896 93.013 25.4635 93 25.4375C92.9609 25.3594 92.9479 25.3138 92.9609 25.3008C92.974 25.2878 92.9805 25.2682 92.9805 25.2422C92.9023 25.138 92.8568 25.0859 92.8438 25.0859C92.8307 25.0729 92.8112 25.0794 92.7852 25.1055C92.694 25.1836 92.6354 25.2292 92.6094 25.2422C92.5833 25.2552 92.5573 25.2617 92.5312 25.2617C92.5052 25.3138 92.4727 25.3398 92.4336 25.3398C92.4076 25.3398 92.388 25.3724 92.375 25.4375C92.3229 25.4505 92.2839 25.4766 92.2578 25.5156C92.2448 25.5417 92.2188 25.5677 92.1797 25.5938C92.1016 25.6068 92.0495 25.6198 92.0234 25.6328C91.9974 25.6458 91.9648 25.6523 91.9258 25.6523C91.8477 25.7044 91.8021 25.7305 91.7891 25.7305C91.776 25.7174 91.7565 25.7174 91.7305 25.7305C91.6393 25.7565 91.5677 25.7826 91.5156 25.8086C91.4766 25.8346 91.4049 25.8346 91.3008 25.8086C91.2357 25.8477 91.1641 25.8802 91.0859 25.9062C91.0078 25.9323 90.9362 25.9323 90.8711 25.9062C90.7669 25.9714 90.6628 26.0104 90.5586 26.0234C90.4674 26.0234 90.3633 26.0169 90.2461 26.0039C90.2201 26.0299 90.168 26.0365 90.0898 26.0234C90.0247 26.0104 89.9596 26.0365 89.8945 26.1016C89.8294 26.0755 89.7708 26.0755 89.7188 26.1016C89.6667 26.1146 89.6081 26.1276 89.543 26.1406C89.5039 26.1406 89.4453 26.1406 89.3672 26.1406C89.2891 26.1406 89.2044 26.1406 89.1133 26.1406C89.0352 26.1276 88.957 26.1276 88.8789 26.1406C88.8138 26.1406 88.7682 26.1536 88.7422 26.1797C88.625 26.1146 88.5013 26.0951 88.3711 26.1211C88.2409 26.1341 88.1172 26.1276 88 26.1016C87.9479 26.0755 87.8958 26.056 87.8438 26.043C87.8047 26.0169 87.7591 25.9974 87.707 25.9844C87.6549 25.9714 87.5703 25.9518 87.4531 25.9258C87.349 25.8997 87.2839 25.8607 87.2578 25.8086C87.1016 25.7565 86.9909 25.7174 86.9258 25.6914C86.8607 25.6523 86.7891 25.6328 86.7109 25.6328C86.6458 25.5807 86.5807 25.5352 86.5156 25.4961C86.4635 25.444 86.4049 25.4049 86.3398 25.3789C86.1836 25.2747 86.0794 25.1901 86.0273 25.125C85.9362 25.0729 85.8776 25.0339 85.8516 25.0078C85.8385 24.9818 85.8385 24.9557 85.8516 24.9297C85.7604 24.7734 85.6497 24.6628 85.5195 24.5977C85.4805 24.4935 85.4219 24.4089 85.3438 24.3438C85.2656 24.2656 85.2005 24.181 85.1484 24.0898C85.1224 24.0378 85.0898 23.9596 85.0508 23.8555C85.0247 23.7513 84.9987 23.6862 84.9727 23.6602C84.9727 23.6602 84.9661 23.6276 84.9531 23.5625C84.9531 23.4974 84.9466 23.4258 84.9336 23.3477C84.9206 23.2695 84.9076 23.1979 84.8945 23.1328C84.8815 23.0677 84.8685 23.0286 84.8555 23.0156L84.8359 22.7422C84.849 22.6771 84.8424 22.612 84.8164 22.5469C84.8034 22.4688 84.8164 22.4102 84.8555 22.3711C84.8034 22.319 84.7839 22.2734 84.7969 22.2344C84.8229 22.1823 84.8424 22.1237 84.8555 22.0586C84.8424 21.9674 84.8424 21.9154 84.8555 21.9023C84.8685 21.8893 84.875 21.8698 84.875 21.8438C84.862 21.7526 84.8555 21.6875 84.8555 21.6484C84.8685 21.6094 84.875 21.5768 84.875 21.5508C84.849 21.3945 84.849 21.2969 84.875 21.2578C84.901 21.2188 84.9271 21.1797 84.9531 21.1406L84.9141 20.9258C84.9661 20.7826 84.9987 20.6979 85.0117 20.6719C85.0247 20.6458 85.0312 20.6198 85.0312 20.5938C85.0573 20.5286 85.0638 20.4635 85.0508 20.3984C85.0378 20.3203 85.0573 20.2487 85.1094 20.1836C85.0833 20.0794 85.0768 19.9818 85.0898 19.8906C85.1029 19.7995 85.1224 19.7018 85.1484 19.5977C85.1745 19.4805 85.194 19.3958 85.207 19.3438C85.2331 19.2786 85.2331 19.2331 85.207 19.207C85.1419 19.1289 85.0182 19.1029 84.8359 19.1289C84.6536 19.1549 84.5234 19.168 84.4453 19.168C84.3542 19.168 84.263 19.168 84.1719 19.168C84.0938 19.168 84.0091 19.181 83.918 19.207C83.8919 19.1549 83.8529 19.1289 83.8008 19.1289C83.7617 19.1289 83.7161 19.1224 83.6641 19.1094C83.612 19.0573 83.5729 19.0312 83.5469 19.0312C83.5078 19.0312 83.4753 19.0182 83.4492 18.9922C83.4232 18.9661 83.4036 18.9336 83.3906 18.8945C83.3646 18.8555 83.3451 18.8229 83.332 18.7969C83.2669 18.7188 83.2279 18.6602 83.2148 18.6211C83.1888 18.582 83.1953 18.5104 83.2344 18.4062C83.2734 18.276 83.319 18.2109 83.3711 18.2109C83.4102 18.1979 83.4232 18.1654 83.4102 18.1133C83.4622 18.1393 83.5078 18.1393 83.5469 18.1133C83.5729 18.0742 83.6055 18.0482 83.6445 18.0352C83.6836 18.0352 83.7357 18.0352 83.8008 18.0352C83.8659 18.0221 83.918 18.0156 83.957 18.0156C84.0872 18.0547 84.1523 18.0677 84.1523 18.0547C84.1654 18.0417 84.1849 18.0352 84.2109 18.0352C84.4323 18.0612 84.6016 18.0677 84.7188 18.0547C84.8359 18.0286 84.9596 18.0026 85.0898 17.9766C85.207 17.9896 85.2917 18.0091 85.3438 18.0352C85.3958 18.0482 85.4479 18.0482 85.5 18.0352C85.526 18.0352 85.5651 18.0286 85.6172 18.0156C85.6823 18.0026 85.7409 17.9896 85.793 17.9766C85.8581 17.9635 85.9167 17.9635 85.9688 17.9766C86.0208 17.9766 86.0469 18.0026 86.0469 18.0547C86.112 18.0677 86.1576 18.0938 86.1836 18.1328C86.2227 18.1589 86.2747 18.1849 86.3398 18.2109C86.3789 18.3151 86.3854 18.3802 86.3594 18.4062C86.3333 18.4193 86.3464 18.4388 86.3984 18.4648C86.4245 18.5169 86.431 18.5951 86.418 18.6992C86.418 18.8034 86.431 18.8685 86.457 18.8945C86.444 18.9206 86.431 18.9661 86.418 19.0312C86.4049 19.0964 86.3919 19.168 86.3789 19.2461C86.3789 19.3242 86.3724 19.4023 86.3594 19.4805C86.3594 19.5586 86.3594 19.6107 86.3594 19.6367C86.3724 19.7279 86.3659 19.7799 86.3398 19.793C86.3268 19.806 86.3203 19.832 86.3203 19.8711C86.3203 19.9232 86.3203 19.9818 86.3203 20.0469C86.3203 20.099 86.3203 20.138 86.3203 20.1641C86.3073 20.2161 86.2878 20.2552 86.2617 20.2812C86.2487 20.2943 86.2357 20.3138 86.2227 20.3398C86.1966 20.4049 86.1966 20.4831 86.2227 20.5742C86.2487 20.6523 86.2422 20.724 86.2031 20.7891C86.2031 20.9453 86.1901 21.056 86.1641 21.1211C86.138 21.1862 86.112 21.2448 86.0859 21.2969C86.0729 21.349 86.0599 21.3815 86.0469 21.3945C86.0599 21.4987 86.0599 21.5898 86.0469 21.668C86.0469 21.7461 86.0273 21.8307 85.9883 21.9219C85.9883 22.0651 85.9818 22.1693 85.9688 22.2344C85.9948 22.2734 86.0078 22.319 86.0078 22.3711C86.0078 22.4102 86.0078 22.4557 86.0078 22.5078C86.0078 22.599 86.0143 22.6576 86.0273 22.6836C86.0404 22.6966 86.0469 22.7161 86.0469 22.7422C86.0599 22.7682 86.0599 22.8529 86.0469 22.9961C86.0339 23.1393 86.0208 23.224 86.0078 23.25C86.0208 23.3021 86.0404 23.3411 86.0664 23.3672C86.0924 23.3802 86.1055 23.4193 86.1055 23.4844C86.1836 23.7057 86.2682 23.849 86.3594 23.9141C86.4635 23.9661 86.5482 24.0443 86.6133 24.1484C86.7044 24.2656 86.776 24.3438 86.8281 24.3828C86.8802 24.4089 86.9193 24.4544 86.9453 24.5195C87.0104 24.5195 87.069 24.5391 87.1211 24.5781C87.1732 24.6172 87.2318 24.6367 87.2969 24.6367C87.3359 24.7148 87.3945 24.7669 87.4727 24.793C87.5638 24.819 87.6484 24.8385 87.7266 24.8516C87.7526 24.9167 87.7917 24.9427 87.8438 24.9297C87.8958 24.9167 87.9349 24.9102 87.9609 24.9102C88.0521 24.9753 88.1497 25.0013 88.2539 24.9883C88.3581 24.9753 88.4557 24.9883 88.5469 25.0273C88.5599 25.0273 88.599 25.0208 88.6641 25.0078C88.7422 24.9948 88.8268 24.9883 88.918 24.9883C89.0091 24.9753 89.0938 24.9688 89.1719 24.9688C89.25 24.9688 89.3021 24.9688 89.3281 24.9688C89.4974 24.9948 89.6341 25.0013 89.7383 24.9883C89.8555 24.9622 89.9531 24.9362 90.0312 24.9102C90.0703 24.8971 90.1094 24.8841 90.1484 24.8711C90.1875 24.8451 90.2266 24.8255 90.2656 24.8125C90.3047 24.8125 90.3828 24.8125 90.5 24.8125C90.6302 24.7995 90.7083 24.7865 90.7344 24.7734C90.8646 24.7474 90.9688 24.6953 91.0469 24.6172C91.138 24.6562 91.1901 24.6693 91.2031 24.6562C91.2292 24.6302 91.2552 24.6237 91.2812 24.6367C91.4375 24.5326 91.5482 24.4544 91.6133 24.4023C91.6784 24.3372 91.763 24.2917 91.8672 24.2656C91.9714 24.1745 92.043 24.0768 92.082 23.9727C92.1341 23.9727 92.1732 23.9466 92.1992 23.8945C92.2253 23.8424 92.2578 23.8034 92.2969 23.7773C92.3229 23.7383 92.3555 23.6667 92.3945 23.5625C92.4336 23.4583 92.4661 23.3542 92.4922 23.25C92.5312 23.1328 92.5573 23.0221 92.5703 22.918C92.5833 22.8138 92.5768 22.7357 92.5508 22.6836C92.5898 22.5404 92.6159 22.4297 92.6289 22.3516C92.6549 22.2734 92.6549 22.2018 92.6289 22.1367C92.6549 21.8763 92.668 21.6484 92.668 21.4531C92.681 21.2578 92.6615 21.069 92.6094 20.8867C92.6745 20.7565 92.694 20.6849 92.668 20.6719C92.6419 20.6458 92.6289 20.5807 92.6289 20.4766C92.6419 20.3333 92.6354 20.2422 92.6094 20.2031C92.5964 20.1641 92.5898 20.125 92.5898 20.0859C92.5638 19.9557 92.5573 19.832 92.5703 19.7148C92.5964 19.5846 92.6029 19.4609 92.5898 19.3438C92.5247 19.2917 92.4466 19.2786 92.3555 19.3047C92.2122 19.2917 92.1146 19.3047 92.0625 19.3438C92.0234 19.3698 91.9714 19.3698 91.9062 19.3438L91.75 19.2266C91.6719 19.1875 91.6198 19.1484 91.5938 19.1094C91.5807 19.0573 91.5417 19.0247 91.4766 19.0117C91.4766 18.9596 91.457 18.9271 91.418 18.9141C91.3919 18.901 91.3724 18.875 91.3594 18.8359C91.3854 18.7839 91.3854 18.7383 91.3594 18.6992C91.3464 18.6602 91.3464 18.6211 91.3594 18.582C91.3724 18.5169 91.3919 18.4714 91.418 18.4453C91.444 18.4062 91.457 18.3542 91.457 18.2891C91.4961 18.263 91.5352 18.2565 91.5742 18.2695C91.6263 18.2826 91.6784 18.2826 91.7305 18.2695C91.8477 18.2174 91.9193 18.1914 91.9453 18.1914C91.9714 18.1914 91.9909 18.1784 92.0039 18.1523C92.2513 18.1654 92.4596 18.1523 92.6289 18.1133C92.7982 18.0612 92.974 18.0417 93.1562 18.0547C93.3125 18.0026 93.4167 17.9896 93.4688 18.0156C93.5339 18.0417 93.599 18.0482 93.6641 18.0352C93.7682 18.0091 93.8268 18.0026 93.8398 18.0156C93.8529 18.0156 93.8724 18.0156 93.8984 18.0156C94.0156 17.9766 94.0938 17.9635 94.1328 17.9766C94.1849 17.9766 94.2305 17.957 94.2695 17.918C94.3086 17.944 94.3411 17.9701 94.3672 17.9961C94.4062 18.0091 94.4388 18.0286 94.4648 18.0547C94.5951 18.0417 94.6797 18.0742 94.7188 18.1523C94.7708 18.2305 94.8359 18.276 94.9141 18.2891C94.9401 18.4193 94.9531 18.5104 94.9531 18.5625C94.9661 18.6146 94.9661 18.6536 94.9531 18.6797C94.9531 18.7057 94.9401 18.7383 94.9141 18.7773C94.901 18.8164 94.888 18.888 94.875 18.9922C94.8229 18.9922 94.7773 19.0052 94.7383 19.0312C94.7122 19.0443 94.6732 19.0703 94.6211 19.1094C94.582 19.1354 94.5234 19.1615 94.4453 19.1875C94.3802 19.2005 94.2826 19.207 94.1523 19.207C94.1133 19.194 94.0547 19.2005 93.9766 19.2266C93.9115 19.2396 93.8659 19.2461 93.8398 19.2461C93.8138 19.3112 93.8138 19.3763 93.8398 19.4414C93.8659 19.5065 93.8529 19.5716 93.8008 19.6367C93.8529 19.7539 93.8594 19.832 93.8203 19.8711C93.7943 19.9102 93.7812 19.9818 93.7812 20.0859C93.8073 20.2161 93.8203 20.3138 93.8203 20.3789C93.8333 20.444 93.8268 20.4896 93.8008 20.5156C93.8268 20.6589 93.8464 20.763 93.8594 20.8281C93.8724 20.8802 93.8659 20.9323 93.8398 20.9844C93.8659 21.0234 93.8789 21.0755 93.8789 21.1406C93.8789 21.1927 93.8919 21.2318 93.918 21.2578C93.931 21.2969 93.9049 21.3424 93.8398 21.3945C93.7878 21.4466 93.7943 21.5638 93.8594 21.7461C93.7812 21.9544 93.7878 22.1693 93.8789 22.3906C93.8529 22.4948 93.8203 22.5729 93.7812 22.625C93.7943 22.6771 93.8008 22.7292 93.8008 22.7812C93.8008 22.8203 93.7878 22.8659 93.7617 22.918C93.8138 23.0221 93.8268 23.1003 93.8008 23.1523C93.7878 23.1914 93.8203 23.263 93.8984 23.3672C93.8724 23.4323 93.8724 23.5039 93.8984 23.582C93.9245 23.6471 93.957 23.7122 93.9961 23.7773C93.9961 23.8555 93.9896 23.9401 93.9766 24.0312C93.9766 24.1094 93.9831 24.1875 93.9961 24.2656C94.0091 24.3307 94.0221 24.3893 94.0352 24.4414C94.0612 24.4805 94.0547 24.5391 94.0156 24.6172C94.0807 24.7865 94.1133 24.9102 94.1133 24.9883C94.1133 25.0534 94.1458 25.099 94.2109 25.125C94.3281 25.2031 94.3932 25.2552 94.4062 25.2812C94.4323 25.2943 94.4583 25.3008 94.4844 25.3008C94.5625 25.3138 94.6146 25.3073 94.6406 25.2812C94.6797 25.2552 94.7318 25.2357 94.7969 25.2227C94.862 25.1966 94.9466 25.1836 95.0508 25.1836C95.1549 25.1836 95.2396 25.1836 95.3047 25.1836C95.4089 25.1966 95.4609 25.2096 95.4609 25.2227C95.4609 25.2227 95.474 25.2292 95.5 25.2422C95.6172 25.2943 95.6888 25.3203 95.7148 25.3203C95.7539 25.3203 95.793 25.3268 95.832 25.3398C95.832 25.3659 95.8581 25.418 95.9102 25.4961C95.9622 25.5742 96.0013 25.6198 96.0273 25.6328L96.0859 25.8086ZM105.441 24.9492C105.389 25.1185 105.337 25.2227 105.285 25.2617C105.233 25.2878 105.201 25.3398 105.188 25.418C105.057 25.431 104.947 25.4766 104.855 25.5547C104.777 25.6198 104.634 25.6458 104.426 25.6328C104.217 25.5677 104.048 25.5417 103.918 25.5547C103.801 25.5677 103.677 25.5742 103.547 25.5742C103.521 25.5742 103.488 25.5742 103.449 25.5742C103.41 25.5612 103.378 25.5547 103.352 25.5547C103.312 25.5547 103.273 25.5612 103.234 25.5742C103.208 25.5872 103.182 25.5938 103.156 25.5938C103.091 25.5677 103.026 25.5352 102.961 25.4961C102.909 25.457 102.844 25.431 102.766 25.418C102.766 25.3789 102.772 25.3529 102.785 25.3398C102.798 25.3138 102.798 25.2747 102.785 25.2227C102.772 25.1706 102.753 25.138 102.727 25.125C102.701 25.099 102.681 25.0664 102.668 25.0273C102.694 24.9883 102.707 24.9167 102.707 24.8125C102.72 24.6953 102.72 24.5781 102.707 24.4609C102.694 24.3307 102.681 24.207 102.668 24.0898C102.668 23.9727 102.674 23.8815 102.688 23.8164C102.609 23.8424 102.557 23.888 102.531 23.9531C102.505 24.0182 102.447 24.0573 102.355 24.0703C102.316 24.1354 102.271 24.2005 102.219 24.2656C102.167 24.3177 102.115 24.3763 102.062 24.4414C101.893 24.5586 101.711 24.6693 101.516 24.7734C101.333 24.8646 101.21 24.9622 101.145 25.0664C100.936 25.0924 100.78 25.1641 100.676 25.2812C100.507 25.3333 100.389 25.3659 100.324 25.3789C100.272 25.3919 100.233 25.4245 100.207 25.4766C100.103 25.4505 100.005 25.4635 99.9141 25.5156C99.8359 25.5547 99.7513 25.5807 99.6602 25.5938C99.6081 25.6068 99.5755 25.6263 99.5625 25.6523C99.5625 25.6784 99.543 25.6979 99.5039 25.7109C99.4648 25.7109 99.4193 25.7174 99.3672 25.7305C99.3151 25.7305 99.276 25.7435 99.25 25.7695C99.1979 25.7435 99.1263 25.724 99.0352 25.7109C98.944 25.6849 98.8464 25.6654 98.7422 25.6523C98.651 25.6263 98.5664 25.6068 98.4883 25.5938C98.4102 25.5807 98.3711 25.5742 98.3711 25.5742C98.306 25.5352 98.2539 25.5221 98.2148 25.5352C98.1888 25.5352 98.1628 25.5352 98.1367 25.5352C98.0716 25.5091 98.013 25.4896 97.9609 25.4766C97.9089 25.4505 97.8503 25.4375 97.7852 25.4375C97.7331 25.3724 97.668 25.3333 97.5898 25.3203C97.5247 25.2943 97.4531 25.2747 97.375 25.2617C97.3359 25.1966 97.2904 25.1445 97.2383 25.1055C97.1992 25.0664 97.1732 25.0078 97.1602 24.9297C97.0039 24.8516 96.8932 24.7734 96.8281 24.6953C96.763 24.6042 96.7174 24.5195 96.6914 24.4414C96.6654 24.3503 96.6393 24.2656 96.6133 24.1875C96.5872 24.0964 96.5482 24.0117 96.4961 23.9336C96.4701 23.7643 96.4635 23.6406 96.4766 23.5625C96.5026 23.4844 96.5026 23.4128 96.4766 23.3477C96.4766 23.3346 96.4896 23.2826 96.5156 23.1914C96.5547 23.1003 96.5938 23.0026 96.6328 22.8984C96.6849 22.7812 96.7305 22.6771 96.7695 22.5859C96.8216 22.4818 96.8607 22.4232 96.8867 22.4102C96.8867 22.3971 96.8932 22.3646 96.9062 22.3125C96.9323 22.2604 96.9583 22.2018 96.9844 22.1367C97.0104 22.0586 97.0299 21.9935 97.043 21.9414C97.069 21.8763 97.0885 21.8372 97.1016 21.8242C97.1276 21.7721 97.1602 21.7266 97.1992 21.6875C97.2513 21.6484 97.2708 21.5964 97.2578 21.5312C97.3359 21.4531 97.3815 21.3815 97.3945 21.3164C97.4857 21.2513 97.5312 21.1797 97.5312 21.1016C97.7005 20.9844 97.8438 20.8672 97.9609 20.75C98.0781 20.6328 98.1693 20.5677 98.2344 20.5547C98.3516 20.4635 98.4297 20.4049 98.4688 20.3789C98.5208 20.3529 98.5729 20.3268 98.625 20.3008C98.6641 20.2878 98.6901 20.2682 98.7031 20.2422C98.7161 20.2031 98.7357 20.1706 98.7617 20.1445C98.8919 20.0924 99.0221 20.0143 99.1523 19.9102C99.2695 19.8841 99.3411 19.8646 99.3672 19.8516C99.4062 19.8385 99.4388 19.819 99.4648 19.793C99.6732 19.7669 99.8555 19.6888 100.012 19.5586C100.103 19.5456 100.201 19.526 100.305 19.5C100.409 19.474 100.507 19.4479 100.598 19.4219C100.689 19.4219 100.754 19.4089 100.793 19.3828C100.871 19.3958 100.943 19.3958 101.008 19.3828C101.086 19.3568 101.164 19.3372 101.242 19.3242C101.346 19.4023 101.431 19.4414 101.496 19.4414C101.691 19.4414 101.828 19.4609 101.906 19.5C101.984 19.5391 102.076 19.5456 102.18 19.5195C102.206 19.5456 102.238 19.5586 102.277 19.5586C102.316 19.5586 102.349 19.5716 102.375 19.5977C102.388 19.5586 102.382 19.5 102.355 19.4219C102.342 19.3307 102.316 19.2721 102.277 19.2461C102.264 19.207 102.258 19.168 102.258 19.1289C102.258 19.0768 102.251 19.0378 102.238 19.0117C102.16 18.8945 102.108 18.8099 102.082 18.7578C102.056 18.7057 102.03 18.6602 102.004 18.6211C101.939 18.5299 101.867 18.4518 101.789 18.3867C101.724 18.3086 101.659 18.2305 101.594 18.1523C101.411 18.1263 101.262 18.0938 101.145 18.0547C101.04 18.0156 100.897 18.0091 100.715 18.0352C100.585 17.9961 100.507 17.9831 100.48 17.9961C100.454 18.0091 100.428 18.0156 100.402 18.0156C100.259 18.0026 100.174 18.0026 100.148 18.0156C100.135 18.0286 100.116 18.0352 100.09 18.0352C99.9596 18.0221 99.8229 18.0352 99.6797 18.0742C99.5365 18.1003 99.4648 18.1198 99.4648 18.1328C99.3737 18.1198 99.2565 18.1393 99.1133 18.1914C98.9701 18.2305 98.8854 18.263 98.8594 18.2891C98.8073 18.3411 98.7422 18.3737 98.6641 18.3867C98.599 18.3867 98.5534 18.3997 98.5273 18.4258C98.4753 18.4648 98.4167 18.5169 98.3516 18.582C98.2865 18.6471 98.2409 18.7122 98.2148 18.7773C98.1497 18.7904 98.0977 18.8164 98.0586 18.8555C98.0195 18.8945 97.974 18.9271 97.9219 18.9531C97.9089 19.0703 97.8633 19.1615 97.7852 19.2266C97.7201 19.2917 97.681 19.3893 97.668 19.5195C97.5508 19.5326 97.5052 19.6107 97.5312 19.7539C97.4271 19.7409 97.3555 19.7669 97.3164 19.832C97.2904 19.8971 97.2318 19.9427 97.1406 19.9688C97.0885 19.9557 97.0104 19.9232 96.9062 19.8711C96.8151 19.806 96.75 19.7539 96.7109 19.7148C96.6849 19.6497 96.6719 19.5781 96.6719 19.5C96.6849 19.4089 96.7044 19.3112 96.7305 19.207C96.7565 19.1029 96.7826 19.0117 96.8086 18.9336C96.8477 18.8424 96.8737 18.7969 96.8867 18.7969C96.8737 18.7578 96.8802 18.7122 96.9062 18.6602C96.9323 18.5951 96.9648 18.5299 97.0039 18.4648C97.043 18.3867 97.082 18.3216 97.1211 18.2695C97.1732 18.2174 97.2188 18.1849 97.2578 18.1719C97.3099 18.1198 97.3555 18.0612 97.3945 17.9961C97.4336 17.931 97.4792 17.8724 97.5312 17.8203C97.6354 17.7422 97.707 17.6771 97.7461 17.625C97.8242 17.612 97.8763 17.5859 97.9023 17.5469C97.9414 17.4948 97.9805 17.4427 98.0195 17.3906C98.1367 17.3646 98.2018 17.3516 98.2148 17.3516C98.2279 17.3385 98.2409 17.319 98.2539 17.293C98.3971 17.2669 98.5013 17.2279 98.5664 17.1758C98.6445 17.1237 98.7227 17.1042 98.8008 17.1172C98.8659 17.0521 98.9505 17.013 99.0547 17C99.1589 16.987 99.2435 16.9544 99.3086 16.9023C99.3086 16.9023 99.3411 16.9023 99.4062 16.9023C99.4714 16.8893 99.543 16.8828 99.6211 16.8828C99.6992 16.8698 99.7708 16.8568 99.8359 16.8438C99.901 16.8307 99.9336 16.8242 99.9336 16.8242C99.9727 16.8112 100.018 16.7982 100.07 16.7852C100.122 16.7591 100.168 16.7526 100.207 16.7656C100.389 16.8177 100.513 16.8372 100.578 16.8242C100.643 16.8112 100.715 16.7917 100.793 16.7656C100.884 16.8047 100.936 16.8177 100.949 16.8047C100.975 16.7917 101.001 16.7852 101.027 16.7852C101.132 16.7982 101.19 16.8112 101.203 16.8242C101.216 16.8372 101.288 16.8372 101.418 16.8242C101.444 16.8503 101.477 16.8633 101.516 16.8633C101.568 16.8503 101.607 16.8438 101.633 16.8438C101.75 16.9219 101.815 16.9544 101.828 16.9414C101.854 16.9154 101.88 16.9023 101.906 16.9023C101.984 16.9805 102.056 17.0326 102.121 17.0586C102.199 17.0716 102.284 17.1042 102.375 17.1562C102.466 17.2344 102.518 17.2734 102.531 17.2734C102.557 17.2734 102.583 17.2799 102.609 17.293C102.688 17.4492 102.759 17.5469 102.824 17.5859C102.902 17.625 102.974 17.6641 103.039 17.7031C103.052 17.7552 103.065 17.8008 103.078 17.8398C103.104 17.8789 103.124 17.931 103.137 17.9961C103.176 18.0352 103.202 18.0677 103.215 18.0938C103.228 18.1068 103.247 18.1458 103.273 18.2109C103.326 18.3021 103.365 18.3672 103.391 18.4062C103.417 18.4453 103.443 18.4844 103.469 18.5234C103.534 18.6536 103.573 18.7904 103.586 18.9336C103.612 19.0638 103.638 19.168 103.664 19.2461C103.651 19.2591 103.651 19.2917 103.664 19.3438C103.677 19.3958 103.69 19.4544 103.703 19.5195C103.729 19.5846 103.749 19.6497 103.762 19.7148C103.788 19.7669 103.801 19.806 103.801 19.832C103.788 19.9362 103.801 20.0534 103.84 20.1836C103.879 20.3138 103.905 20.3984 103.918 20.4375C103.866 20.5026 103.846 20.5807 103.859 20.6719C103.885 20.75 103.898 20.8281 103.898 20.9062C103.898 20.9453 103.892 20.9844 103.879 21.0234C103.866 21.0495 103.859 21.0755 103.859 21.1016C103.872 21.2057 103.872 21.2643 103.859 21.2773C103.859 21.2904 103.859 21.3099 103.859 21.3359C103.885 21.4792 103.892 21.5703 103.879 21.6094C103.879 21.6484 103.879 21.681 103.879 21.707C103.879 21.9023 103.898 22.0977 103.938 22.293C103.977 22.4753 104.003 22.6576 104.016 22.8398C104.016 22.931 104.009 23.0221 103.996 23.1133C103.983 23.1914 103.977 23.2695 103.977 23.3477C103.964 23.5299 103.957 23.7122 103.957 23.8945C103.97 24.0768 103.99 24.2591 104.016 24.4414C104.042 24.4544 104.094 24.4609 104.172 24.4609C104.263 24.4609 104.322 24.4479 104.348 24.4219C104.465 24.4479 104.53 24.4544 104.543 24.4414C104.556 24.4154 104.589 24.4023 104.641 24.4023C104.693 24.3893 104.725 24.3958 104.738 24.4219C104.764 24.4349 104.803 24.4479 104.855 24.4609C104.895 24.474 104.934 24.4805 104.973 24.4805C105.025 24.4674 105.07 24.4674 105.109 24.4805C105.161 24.5065 105.214 24.5521 105.266 24.6172C105.331 24.6823 105.376 24.7148 105.402 24.7148C105.441 24.8451 105.454 24.9232 105.441 24.9492ZM102.727 21.4727C102.74 21.3294 102.707 21.1927 102.629 21.0625C102.551 20.9323 102.44 20.8411 102.297 20.7891C102.128 20.724 101.952 20.6523 101.77 20.5742C101.587 20.4961 101.405 20.4505 101.223 20.4375C101.184 20.4375 101.145 20.444 101.105 20.457C101.079 20.457 101.047 20.457 101.008 20.457C100.93 20.457 100.852 20.4635 100.773 20.4766C100.695 20.4766 100.617 20.4896 100.539 20.5156C100.461 20.5417 100.383 20.5742 100.305 20.6133C100.24 20.6393 100.174 20.6654 100.109 20.6914C100.057 20.7174 100.005 20.7305 99.9531 20.7305C99.901 20.7305 99.849 20.7435 99.7969 20.7695C99.7188 20.7956 99.6276 20.8542 99.5234 20.9453C99.4323 21.0234 99.2956 21.0951 99.1133 21.1602C99.0482 21.1992 99.0026 21.2188 98.9766 21.2188C98.9635 21.2188 98.944 21.2318 98.918 21.2578C98.8659 21.2839 98.8268 21.3294 98.8008 21.3945C98.7747 21.4466 98.7292 21.4922 98.6641 21.5312L98.4297 21.6484C98.3646 21.7135 98.2995 21.7917 98.2344 21.8828C98.1823 21.9609 98.1237 22.0326 98.0586 22.0977C98.0326 22.1237 98.0065 22.1497 97.9805 22.1758C97.9674 22.2018 97.9479 22.2279 97.9219 22.2539C97.9219 22.2669 97.9023 22.3385 97.8633 22.4688C97.8242 22.5859 97.7786 22.7227 97.7266 22.8789C97.6875 23.0221 97.6484 23.1589 97.6094 23.2891C97.5703 23.4062 97.5508 23.4648 97.5508 23.4648C97.5508 23.556 97.5768 23.6797 97.6289 23.8359C97.694 23.9792 97.7461 24.0898 97.7852 24.168C97.8112 24.194 97.8633 24.2331 97.9414 24.2852C98.0326 24.3372 98.0911 24.3763 98.1172 24.4023C98.2734 24.5065 98.3906 24.5651 98.4688 24.5781C98.5469 24.5781 98.6185 24.6107 98.6836 24.6758C98.7227 24.6628 98.7552 24.6628 98.7812 24.6758C98.8203 24.6888 98.8594 24.6823 98.8984 24.6562C98.9245 24.6953 98.9505 24.7148 98.9766 24.7148C99.0156 24.7018 99.0547 24.6953 99.0938 24.6953C99.224 24.6953 99.3216 24.6823 99.3867 24.6562C99.4518 24.6302 99.5299 24.6302 99.6211 24.6562C99.6471 24.6042 99.6862 24.5846 99.7383 24.5977C99.7904 24.5977 99.8359 24.5846 99.875 24.5586C99.9141 24.5326 99.9531 24.513 99.9922 24.5C100.031 24.474 100.07 24.4479 100.109 24.4219C100.227 24.4479 100.331 24.4219 100.422 24.3438C100.526 24.2526 100.637 24.2005 100.754 24.1875C100.832 24.0833 100.943 23.9987 101.086 23.9336C101.242 23.8685 101.333 23.7708 101.359 23.6406C101.438 23.6406 101.483 23.6146 101.496 23.5625C101.522 23.4974 101.568 23.4583 101.633 23.4453C101.685 23.3672 101.737 23.3216 101.789 23.3086C101.854 23.2565 101.906 23.2044 101.945 23.1523C101.997 23.1003 102.036 23.0612 102.062 23.0352C102.128 22.9961 102.186 22.9635 102.238 22.9375C102.29 22.8854 102.342 22.8464 102.395 22.8203C102.408 22.7943 102.453 22.7422 102.531 22.6641C102.609 22.5729 102.648 22.5078 102.648 22.4688C102.648 22.3646 102.635 22.2604 102.609 22.1562C102.583 22.0391 102.577 21.9349 102.59 21.8438C102.59 21.7786 102.609 21.7201 102.648 21.668C102.688 21.6029 102.714 21.5378 102.727 21.4727ZM113.449 19.7734C113.423 19.7995 113.41 19.8385 113.41 19.8906C113.423 19.9297 113.423 19.9753 113.41 20.0273C113.384 20.1315 113.345 20.2357 113.293 20.3398C113.254 20.431 113.221 20.5286 113.195 20.6328C113.169 20.6589 113.137 20.6849 113.098 20.7109C113.059 20.737 113.033 20.776 113.02 20.8281C112.915 20.8151 112.831 20.8346 112.766 20.8867C112.714 20.9388 112.629 20.9518 112.512 20.9258C112.408 20.8997 112.342 20.8607 112.316 20.8086C112.303 20.7435 112.258 20.6979 112.18 20.6719C112.193 20.6068 112.186 20.5547 112.16 20.5156C112.147 20.4635 112.147 20.4049 112.16 20.3398C112.173 20.3008 112.18 20.2096 112.18 20.0664C112.193 19.9102 112.212 19.819 112.238 19.793C112.225 19.7539 112.206 19.7083 112.18 19.6562C112.167 19.6042 112.167 19.5586 112.18 19.5195C112.023 19.4544 111.926 19.4154 111.887 19.4023C111.861 19.3763 111.828 19.3568 111.789 19.3438C111.659 19.3438 111.587 19.3372 111.574 19.3242C111.574 19.3112 111.561 19.3047 111.535 19.3047C111.405 19.3047 111.333 19.2982 111.32 19.2852C111.307 19.2721 111.288 19.2656 111.262 19.2656C111.171 19.2526 111.034 19.2591 110.852 19.2852C110.682 19.3112 110.559 19.3438 110.48 19.3828C110.454 19.3438 110.402 19.3503 110.324 19.4023C110.246 19.4544 110.194 19.4935 110.168 19.5195C110.103 19.4935 110.051 19.4935 110.012 19.5195C109.986 19.5456 109.947 19.5716 109.895 19.5977C109.764 19.6628 109.654 19.7279 109.562 19.793C109.484 19.8581 109.393 19.9427 109.289 20.0469C109.263 20.0729 109.23 20.099 109.191 20.125C109.152 20.151 109.126 20.1836 109.113 20.2227C109.035 20.2227 108.977 20.2487 108.938 20.3008C108.911 20.3398 108.866 20.3724 108.801 20.3984C108.775 20.4505 108.749 20.4961 108.723 20.5352C108.71 20.5742 108.69 20.6198 108.664 20.6719C108.599 20.6979 108.547 20.7435 108.508 20.8086C108.482 20.8737 108.436 20.9193 108.371 20.9453C108.345 20.9844 108.326 21.0234 108.312 21.0625C108.299 21.0885 108.273 21.1146 108.234 21.1406C108.208 21.2057 108.176 21.2643 108.137 21.3164C108.098 21.3685 108.072 21.4336 108.059 21.5117C107.993 21.668 107.948 21.7721 107.922 21.8242C107.896 21.8763 107.883 21.9349 107.883 22C107.896 22.1693 107.896 22.2995 107.883 22.3906C107.883 22.4688 107.883 22.5534 107.883 22.6445C107.909 22.944 107.909 23.25 107.883 23.5625C107.922 23.6536 107.935 23.7188 107.922 23.7578C107.922 23.7839 107.915 23.8099 107.902 23.8359C107.915 23.875 107.915 23.9141 107.902 23.9531C107.902 23.9792 107.915 24.0052 107.941 24.0312C107.915 24.0964 107.915 24.168 107.941 24.2461C107.98 24.3112 107.974 24.3763 107.922 24.4414C108.039 24.5846 108.143 24.6367 108.234 24.5977C108.247 24.6497 108.273 24.6758 108.312 24.6758C108.365 24.6758 108.404 24.6888 108.43 24.7148C108.573 24.7018 108.71 24.7148 108.84 24.7539C108.97 24.793 109.081 24.8646 109.172 24.9688C109.185 25.0078 109.211 25.0273 109.25 25.0273C109.289 25.0273 109.322 25.0404 109.348 25.0664C109.335 25.1185 109.335 25.1706 109.348 25.2227C109.361 25.2617 109.361 25.3008 109.348 25.3398C109.335 25.3659 109.296 25.418 109.23 25.4961C109.178 25.5742 109.139 25.6068 109.113 25.5938C109.113 25.6979 109.074 25.75 108.996 25.75C108.931 25.75 108.866 25.763 108.801 25.7891C108.697 25.8151 108.612 25.8411 108.547 25.8672C108.482 25.8802 108.404 25.8737 108.312 25.8477C108.26 25.8346 108.208 25.8216 108.156 25.8086C108.117 25.7826 108.072 25.7695 108.02 25.7695C107.915 25.7435 107.818 25.7435 107.727 25.7695C107.635 25.7826 107.538 25.7891 107.434 25.7891C107.29 25.7891 107.141 25.7891 106.984 25.7891C106.828 25.7891 106.672 25.8021 106.516 25.8281L106.281 25.8867C106.216 25.8867 106.138 25.8802 106.047 25.8672C105.956 25.8542 105.878 25.8346 105.812 25.8086C105.669 25.7565 105.604 25.7109 105.617 25.6719C105.63 25.6328 105.604 25.5872 105.539 25.5352C105.591 25.418 105.598 25.3138 105.559 25.2227C105.663 25.1315 105.734 25.0859 105.773 25.0859C105.812 25.0859 105.826 25.0664 105.812 25.0273C105.878 25.0273 105.923 25.0143 105.949 24.9883C105.988 24.9492 106.027 24.9167 106.066 24.8906C106.118 24.8906 106.184 24.8776 106.262 24.8516C106.34 24.8255 106.411 24.806 106.477 24.793C106.555 24.7799 106.613 24.7474 106.652 24.6953C106.652 24.6823 106.652 24.6302 106.652 24.5391C106.665 24.4479 106.672 24.3568 106.672 24.2656C106.685 24.1615 106.691 24.0638 106.691 23.9727C106.691 23.8815 106.691 23.8294 106.691 23.8164C106.665 23.7122 106.652 23.6536 106.652 23.6406C106.665 23.6276 106.672 23.6081 106.672 23.582C106.672 23.543 106.665 23.5104 106.652 23.4844C106.639 23.4453 106.633 23.3997 106.633 23.3477C106.633 23.3216 106.639 23.2891 106.652 23.25C106.665 23.2109 106.672 23.1784 106.672 23.1523C106.685 22.9961 106.685 22.8398 106.672 22.6836C106.646 22.6445 106.646 22.6055 106.672 22.5664C106.698 22.5143 106.685 22.4622 106.633 22.4102C106.685 22.306 106.704 22.1953 106.691 22.0781C106.691 21.9609 106.704 21.8438 106.73 21.7266C106.77 21.6224 106.789 21.5247 106.789 21.4336C106.802 21.3294 106.809 21.2578 106.809 21.2188C106.822 21.1536 106.822 21.0951 106.809 21.043C106.809 20.9779 106.809 20.9128 106.809 20.8477C106.822 20.7826 106.835 20.7174 106.848 20.6523C106.861 20.5872 106.874 20.5221 106.887 20.457C106.9 20.4049 106.887 20.3464 106.848 20.2812C106.822 20.2161 106.802 20.1706 106.789 20.1445C106.763 20.0013 106.757 19.8646 106.77 19.7344C106.783 19.5911 106.789 19.4479 106.789 19.3047C106.763 19.2656 106.724 19.2526 106.672 19.2656C106.62 19.2656 106.581 19.2396 106.555 19.1875C106.411 19.2266 106.275 19.2201 106.145 19.168C106.027 19.1159 105.93 19.0378 105.852 18.9336C105.839 18.8945 105.839 18.8424 105.852 18.7773C105.865 18.6992 105.852 18.6536 105.812 18.6406C105.839 18.5885 105.871 18.556 105.91 18.543C105.962 18.5169 106.001 18.4844 106.027 18.4453C106.053 18.3932 106.053 18.3542 106.027 18.3281C106.014 18.3021 106.014 18.276 106.027 18.25C106.053 18.224 106.092 18.1914 106.145 18.1523C106.197 18.1133 106.236 18.0872 106.262 18.0742C106.262 18.0742 106.294 18.0807 106.359 18.0938C106.424 18.0938 106.49 18.1003 106.555 18.1133C106.633 18.1133 106.704 18.1198 106.77 18.1328C106.835 18.1328 106.867 18.1328 106.867 18.1328C106.971 18.1198 107.062 18.1198 107.141 18.1328C107.219 18.1458 107.297 18.1523 107.375 18.1523C107.401 18.1523 107.434 18.1458 107.473 18.1328C107.512 18.1198 107.551 18.1198 107.59 18.1328C107.655 18.1458 107.733 18.1979 107.824 18.2891C107.928 18.3802 107.993 18.4583 108.02 18.5234C108.046 18.6016 108.046 18.6862 108.02 18.7773C107.993 18.8685 108.007 18.9531 108.059 19.0312C108.072 19.1094 108.059 19.1745 108.02 19.2266C107.993 19.2656 108.02 19.3438 108.098 19.4609C108.072 19.5 108.065 19.5456 108.078 19.5977C108.091 19.6367 108.085 19.6758 108.059 19.7148C108.124 19.7018 108.163 19.6758 108.176 19.6367C108.202 19.5977 108.228 19.5586 108.254 19.5195C108.358 19.4935 108.456 19.4414 108.547 19.3633C108.638 19.2721 108.716 19.181 108.781 19.0898C108.82 19.0378 108.866 18.9987 108.918 18.9727C108.983 18.9336 109.042 18.888 109.094 18.8359C109.172 18.8099 109.296 18.7578 109.465 18.6797C109.647 18.6016 109.764 18.5299 109.816 18.4648C109.934 18.4648 110.031 18.4258 110.109 18.3477C110.174 18.3477 110.246 18.3411 110.324 18.3281C110.402 18.3151 110.474 18.2956 110.539 18.2695C110.604 18.2435 110.663 18.237 110.715 18.25C110.78 18.263 110.845 18.263 110.91 18.25C111.04 18.25 111.164 18.2435 111.281 18.2305C111.411 18.2044 111.529 18.1914 111.633 18.1914C111.711 18.1914 111.841 18.2044 112.023 18.2305C112.206 18.2565 112.336 18.2826 112.414 18.3086C112.479 18.3346 112.538 18.3607 112.59 18.3867C112.655 18.4128 112.72 18.4193 112.785 18.4062C112.798 18.4714 112.831 18.5169 112.883 18.543C112.935 18.569 112.993 18.582 113.059 18.582C113.202 18.7253 113.293 18.9141 113.332 19.1484C113.384 19.3828 113.423 19.5911 113.449 19.7734ZM124.309 18.2695C124.335 18.3086 124.348 18.3737 124.348 18.4648C124.348 18.556 124.322 18.6146 124.27 18.6406C124.296 18.7057 124.289 18.7578 124.25 18.7969C124.211 18.8359 124.178 18.888 124.152 18.9531C124.087 18.9271 124.042 18.9336 124.016 18.9727C124.003 19.0117 123.97 19.0378 123.918 19.0508C123.892 19.0378 123.859 19.0247 123.82 19.0117C123.781 18.9987 123.749 18.9922 123.723 18.9922C123.592 19.0312 123.514 19.0508 123.488 19.0508C123.462 19.0378 123.43 19.0573 123.391 19.1094C123.234 19.0573 123.137 19.0378 123.098 19.0508C123.072 19.0638 123.039 19.0768 123 19.0898C123 19.168 122.993 19.2526 122.98 19.3438C122.967 19.4219 122.961 19.5065 122.961 19.5977C122.974 19.7279 122.967 19.8125 122.941 19.8516C122.928 19.8776 122.935 19.9036 122.961 19.9297C122.883 19.9948 122.857 20.0859 122.883 20.2031C122.909 20.3073 122.896 20.3984 122.844 20.4766C122.857 20.6719 122.863 20.8151 122.863 20.9062C122.876 20.9844 122.863 21.056 122.824 21.1211C122.863 21.2643 122.876 21.3359 122.863 21.3359C122.863 21.3359 122.857 21.349 122.844 21.375C122.844 21.401 122.85 21.4401 122.863 21.4922C122.889 21.5312 122.902 21.5703 122.902 21.6094C122.889 21.7005 122.883 21.7591 122.883 21.7852C122.883 21.7982 122.87 21.8372 122.844 21.9023C122.831 21.9935 122.824 22.0521 122.824 22.0781C122.824 22.1042 122.811 22.1302 122.785 22.1562C122.785 22.2474 122.779 22.332 122.766 22.4102C122.766 22.4883 122.766 22.5664 122.766 22.6445C122.727 22.6706 122.701 22.7031 122.688 22.7422C122.688 22.7812 122.674 22.8138 122.648 22.8398C122.674 22.9049 122.701 22.9701 122.727 23.0352C122.766 23.1003 122.785 23.1719 122.785 23.25C122.785 23.3151 122.772 23.3802 122.746 23.4453C122.733 23.5104 122.74 23.5755 122.766 23.6406C122.779 23.6927 122.798 23.7578 122.824 23.8359C122.85 23.901 122.87 23.9596 122.883 24.0117C122.896 24.1549 122.883 24.2461 122.844 24.2852C122.818 24.3242 122.805 24.3698 122.805 24.4219C122.805 24.487 122.811 24.5456 122.824 24.5977C122.85 24.6497 122.844 24.7018 122.805 24.7539C122.844 24.8581 122.857 24.9167 122.844 24.9297C122.831 24.9427 122.824 24.9622 122.824 24.9883C122.824 25.0273 122.824 25.0664 122.824 25.1055C122.837 25.1445 122.844 25.1836 122.844 25.2227L122.824 25.4375C122.824 25.4896 122.818 25.5872 122.805 25.7305C122.792 25.8737 122.792 25.9583 122.805 25.9844C122.753 26.0104 122.727 26.0625 122.727 26.1406C122.74 26.2057 122.753 26.2578 122.766 26.2969C122.714 26.349 122.688 26.4076 122.688 26.4727C122.701 26.5378 122.694 26.6029 122.668 26.668C122.642 26.7331 122.616 26.7852 122.59 26.8242C122.564 26.8633 122.538 26.9154 122.512 26.9805C122.525 27.0977 122.518 27.1693 122.492 27.1953C122.479 27.2214 122.466 27.2474 122.453 27.2734C122.44 27.3385 122.44 27.3971 122.453 27.4492C122.479 27.5013 122.453 27.5664 122.375 27.6445C122.349 27.7617 122.349 27.8529 122.375 27.918C122.336 27.944 122.303 27.9635 122.277 27.9766C122.264 28.0026 122.245 28.0286 122.219 28.0547C122.245 28.1458 122.232 28.2174 122.18 28.2695C122.141 28.3346 122.108 28.4062 122.082 28.4844C122.056 28.6146 122.03 28.7057 122.004 28.7578C121.991 28.8099 121.965 28.8424 121.926 28.8555C121.939 28.9076 121.919 28.9401 121.867 28.9531C121.815 28.9792 121.789 29.0182 121.789 29.0703C121.75 29.1094 121.704 29.1354 121.652 29.1484C121.613 29.1615 121.594 29.2005 121.594 29.2656C121.477 29.3438 121.418 29.3958 121.418 29.4219C121.418 29.4479 121.405 29.474 121.379 29.5C121.314 29.5391 121.255 29.5716 121.203 29.5977C121.151 29.6237 121.112 29.6758 121.086 29.7539C121.047 29.7539 121.014 29.7669 120.988 29.793C120.962 29.819 120.93 29.8255 120.891 29.8125C120.786 29.8776 120.715 29.9167 120.676 29.9297C120.637 29.9427 120.604 29.9688 120.578 30.0078C120.539 30.0078 120.467 30.0143 120.363 30.0273C120.259 30.0534 120.201 30.0924 120.188 30.1445C119.992 30.1966 119.842 30.2161 119.738 30.2031C119.647 30.1901 119.569 30.2161 119.504 30.2812C119.465 30.2812 119.426 30.2878 119.387 30.3008C119.361 30.3138 119.335 30.3008 119.309 30.2617C119.204 30.3529 119.068 30.3724 118.898 30.3203C118.742 30.3724 118.658 30.3854 118.645 30.3594C118.645 30.3333 118.625 30.3138 118.586 30.3008C118.508 30.3268 118.443 30.3203 118.391 30.2812C118.339 30.2422 118.28 30.2227 118.215 30.2227C118.085 30.2357 118 30.2292 117.961 30.2031C117.922 30.1901 117.87 30.1966 117.805 30.2227C117.661 30.1576 117.577 30.112 117.551 30.0859C117.538 30.0729 117.518 30.0534 117.492 30.0273C117.453 30.0013 117.408 29.9883 117.355 29.9883C117.316 30.0013 117.297 29.9818 117.297 29.9297C117.167 29.8776 117.076 29.832 117.023 29.793C116.984 29.7669 116.952 29.7279 116.926 29.6758C116.809 29.6107 116.75 29.5586 116.75 29.5195C116.711 29.4935 116.678 29.4674 116.652 29.4414C116.626 29.4154 116.613 29.3698 116.613 29.3047C116.548 29.2786 116.496 29.2396 116.457 29.1875C116.418 29.1354 116.366 29.0898 116.301 29.0508C116.288 28.9727 116.229 28.9076 116.125 28.8555C116.086 28.7643 116.027 28.6862 115.949 28.6211C115.949 28.4518 115.891 28.3086 115.773 28.1914C115.76 28.1133 115.754 28.0221 115.754 27.918C115.767 27.8268 115.741 27.7487 115.676 27.6836C115.689 27.6315 115.702 27.5664 115.715 27.4883C115.728 27.4102 115.734 27.3451 115.734 27.293C115.695 27.1367 115.682 27.0391 115.695 27C115.721 26.9479 115.734 26.8958 115.734 26.8438C115.826 26.7786 115.878 26.7396 115.891 26.7266C115.917 26.7005 115.995 26.7005 116.125 26.7266C116.268 26.7526 116.34 26.7721 116.34 26.7852C116.353 26.7982 116.372 26.8047 116.398 26.8047L116.633 26.9219C116.698 27.0651 116.73 27.1628 116.73 27.2148C116.73 27.2799 116.757 27.3255 116.809 27.3516C116.796 27.4297 116.809 27.5013 116.848 27.5664C116.9 27.6315 116.913 27.6966 116.887 27.7617C116.926 27.9049 116.978 28.0352 117.043 28.1523C117.108 28.2826 117.154 28.3737 117.18 28.4258C117.284 28.543 117.349 28.6081 117.375 28.6211C117.401 28.6471 117.414 28.6862 117.414 28.7383C117.44 28.7773 117.473 28.8099 117.512 28.8359C117.564 28.862 117.603 28.888 117.629 28.9141C117.642 28.9141 117.681 28.9271 117.746 28.9531C117.811 28.9792 117.876 29.0052 117.941 29.0312C118.007 29.0703 118.065 29.1029 118.117 29.1289C118.169 29.1549 118.195 29.1745 118.195 29.1875C118.247 29.1615 118.345 29.1549 118.488 29.168C118.645 29.194 118.749 29.2201 118.801 29.2461C118.866 29.181 118.911 29.1484 118.938 29.1484C118.964 29.1615 118.97 29.1549 118.957 29.1289C119.048 29.168 119.146 29.1745 119.25 29.1484C119.367 29.1354 119.458 29.0964 119.523 29.0312C119.667 29.0052 119.738 28.9922 119.738 28.9922C119.751 29.0052 119.764 29.0117 119.777 29.0117C119.829 28.9857 119.882 28.9466 119.934 28.8945C120.064 28.8685 120.142 28.8294 120.168 28.7773C120.259 28.7643 120.337 28.7253 120.402 28.6602C120.48 28.6081 120.565 28.569 120.656 28.543C120.708 28.4258 120.773 28.3281 120.852 28.25C120.943 28.1719 121.001 28.0547 121.027 27.8984C121.079 27.7552 121.138 27.638 121.203 27.5469C121.255 27.4167 121.288 27.319 121.301 27.2539C121.314 27.2018 121.34 27.1628 121.379 27.1367C121.366 27.0065 121.359 26.9219 121.359 26.8828C121.372 26.8307 121.366 26.7852 121.34 26.7461C121.392 26.6419 121.424 26.5833 121.438 26.5703C121.451 26.5573 121.457 26.5378 121.457 26.5117C121.483 26.3555 121.509 26.2448 121.535 26.1797C121.561 26.1146 121.581 26.0495 121.594 25.9844C121.62 25.8802 121.633 25.7891 121.633 25.7109C121.633 25.6198 121.646 25.5286 121.672 25.4375C121.711 25.3464 121.711 25.2552 121.672 25.1641C121.646 25.0599 121.646 24.9557 121.672 24.8516C121.62 24.7083 121.6 24.6302 121.613 24.6172C121.639 24.5911 121.659 24.5651 121.672 24.5391C121.62 24.487 121.568 24.487 121.516 24.5391C121.477 24.5911 121.451 24.6237 121.438 24.6367C121.346 24.6888 121.288 24.7344 121.262 24.7734C121.249 24.7995 121.229 24.8255 121.203 24.8516C121.125 24.8776 121.073 24.9036 121.047 24.9297C121.034 24.9557 121.008 24.9557 120.969 24.9297C120.839 25.0078 120.741 25.0729 120.676 25.125C120.611 25.1771 120.533 25.2096 120.441 25.2227C120.272 25.2357 120.122 25.2552 119.992 25.2812C119.875 25.3073 119.764 25.3333 119.66 25.3594C119.621 25.3594 119.582 25.3724 119.543 25.3984C119.517 25.4245 119.484 25.4375 119.445 25.4375C119.315 25.3854 119.211 25.3789 119.133 25.418C119.003 25.444 118.918 25.4505 118.879 25.4375C118.853 25.4115 118.827 25.3789 118.801 25.3398C118.71 25.3268 118.651 25.3203 118.625 25.3203C118.599 25.3073 118.573 25.3008 118.547 25.3008H118.137L117.785 25.2227C117.72 25.1706 117.648 25.1315 117.57 25.1055C117.492 25.0794 117.414 25.0469 117.336 25.0078C117.284 24.9818 117.238 24.9492 117.199 24.9102C117.16 24.8711 117.108 24.8385 117.043 24.8125C116.978 24.7865 116.919 24.7409 116.867 24.6758C116.815 24.5977 116.75 24.5391 116.672 24.5C116.646 24.4349 116.607 24.3828 116.555 24.3438C116.516 24.3047 116.477 24.2526 116.438 24.1875C116.32 24.0833 116.242 23.9922 116.203 23.9141C116.138 23.7969 116.079 23.7318 116.027 23.7188C116.001 23.6797 115.988 23.6406 115.988 23.6016C115.988 23.5495 115.956 23.5234 115.891 23.5234C115.865 23.4583 115.839 23.3867 115.812 23.3086C115.786 23.2174 115.734 23.1589 115.656 23.1328C115.656 23.1068 115.643 23.0807 115.617 23.0547C115.604 23.0156 115.604 22.9766 115.617 22.9375C115.539 22.8984 115.493 22.8398 115.48 22.7617C115.467 22.6836 115.428 22.612 115.363 22.5469C115.363 22.4297 115.344 22.332 115.305 22.2539C115.266 22.1758 115.233 22.0846 115.207 21.9805C115.194 21.9414 115.201 21.9089 115.227 21.8828C115.266 21.8568 115.285 21.8242 115.285 21.7852C115.285 21.7201 115.272 21.6484 115.246 21.5703C115.233 21.4922 115.24 21.4206 115.266 21.3555C115.253 21.1862 115.24 21.0625 115.227 20.9844C115.227 20.9062 115.207 20.8411 115.168 20.7891L115.188 20.5547C115.161 20.4635 115.148 20.418 115.148 20.418C115.161 20.4049 115.168 20.3854 115.168 20.3594C115.155 20.2292 115.155 20.1445 115.168 20.1055C115.181 20.0664 115.174 20.0273 115.148 19.9883C115.109 19.9622 115.07 19.9622 115.031 19.9883C115.005 20.0013 114.973 20.0078 114.934 20.0078C114.908 20.0078 114.875 20.0013 114.836 19.9883C114.797 19.9753 114.764 19.9753 114.738 19.9883C114.699 19.9883 114.66 19.9948 114.621 20.0078C114.582 20.0208 114.549 20.0339 114.523 20.0469C114.497 20.0208 114.452 20.0208 114.387 20.0469C114.335 20.0729 114.289 20.0859 114.25 20.0859C114.185 20.0859 114.12 20.0729 114.055 20.0469C113.99 20.0208 113.931 20.0208 113.879 20.0469L113.684 19.8906L113.508 19.7734C113.391 19.6302 113.352 19.5195 113.391 19.4414C113.417 19.3503 113.41 19.2721 113.371 19.207C113.397 19.207 113.423 19.194 113.449 19.168C113.475 19.1289 113.501 19.1029 113.527 19.0898C113.71 18.9987 113.866 18.9596 113.996 18.9727C114.126 18.9857 114.237 18.9792 114.328 18.9531C114.406 18.9141 114.458 18.901 114.484 18.9141C114.523 18.9271 114.556 18.9271 114.582 18.9141C114.621 18.9141 114.654 18.9076 114.68 18.8945C114.719 18.8815 114.751 18.875 114.777 18.875C114.816 18.875 114.855 18.8815 114.895 18.8945C114.934 18.9076 114.979 18.9141 115.031 18.9141C115.109 18.9271 115.233 18.9206 115.402 18.8945C115.572 18.8555 115.695 18.8229 115.773 18.7969C115.812 18.8099 115.852 18.8294 115.891 18.8555C115.93 18.8685 115.975 18.875 116.027 18.875C116.145 18.849 116.229 18.8359 116.281 18.8359C116.346 18.8359 116.418 18.8359 116.496 18.8359C116.574 18.8229 116.646 18.8099 116.711 18.7969C116.789 18.7839 116.841 18.7773 116.867 18.7773C116.919 18.7643 116.965 18.7448 117.004 18.7188C117.043 18.6927 117.095 18.6732 117.16 18.6602C117.316 18.6471 117.427 18.6732 117.492 18.7383C117.57 18.8034 117.661 18.8424 117.766 18.8555C117.792 18.9466 117.811 18.9987 117.824 19.0117C117.837 19.0117 117.85 19.0182 117.863 19.0312C117.863 19.1224 117.876 19.181 117.902 19.207C117.928 19.2331 117.935 19.2591 117.922 19.2852C117.87 19.4284 117.844 19.513 117.844 19.5391C117.857 19.5521 117.863 19.5716 117.863 19.5977C117.798 19.6628 117.766 19.7018 117.766 19.7148C117.766 19.7279 117.759 19.7409 117.746 19.7539C117.642 19.7669 117.557 19.819 117.492 19.9102C117.388 19.9102 117.264 19.9102 117.121 19.9102C116.978 19.9102 116.861 19.9362 116.77 19.9883C116.691 19.9622 116.613 19.9557 116.535 19.9688C116.457 19.9818 116.385 20.0013 116.32 20.0273C116.294 20.1185 116.301 20.2096 116.34 20.3008C116.379 20.3789 116.379 20.457 116.34 20.5352C116.392 20.6003 116.431 20.6979 116.457 20.8281C116.496 20.9453 116.477 21.0365 116.398 21.1016C116.451 21.1276 116.464 21.1927 116.438 21.2969C116.424 21.388 116.444 21.4466 116.496 21.4727C116.431 21.5378 116.411 21.6159 116.438 21.707C116.477 21.7982 116.503 21.8828 116.516 21.9609C116.516 22.026 116.509 22.0911 116.496 22.1562C116.483 22.2214 116.49 22.2865 116.516 22.3516C116.516 22.3776 116.529 22.4167 116.555 22.4688C116.594 22.5208 116.633 22.5794 116.672 22.6445C116.711 22.6966 116.75 22.7422 116.789 22.7812C116.828 22.8203 116.861 22.8398 116.887 22.8398C116.887 22.9049 116.906 22.9635 116.945 23.0156C116.997 23.0547 117.023 23.1068 117.023 23.1719C117.062 23.237 117.115 23.2826 117.18 23.3086L117.258 23.5039C117.31 23.582 117.362 23.6276 117.414 23.6406C117.414 23.7057 117.453 23.7708 117.531 23.8359C117.609 23.901 117.694 23.9596 117.785 24.0117C117.889 24.0638 117.993 24.1029 118.098 24.1289C118.202 24.1549 118.28 24.1615 118.332 24.1484C118.397 24.1875 118.469 24.207 118.547 24.207C118.638 24.207 118.716 24.2135 118.781 24.2266C118.82 24.1875 118.879 24.194 118.957 24.2461C119.048 24.2852 119.126 24.2917 119.191 24.2656C119.309 24.2526 119.387 24.2396 119.426 24.2266C119.478 24.2005 119.523 24.181 119.562 24.168C119.719 24.1549 119.823 24.1289 119.875 24.0898C119.94 24.0508 120.012 24.0573 120.09 24.1094C120.233 24.0443 120.318 23.9727 120.344 23.8945C120.448 23.9076 120.526 23.8815 120.578 23.8164C120.63 23.7513 120.689 23.6927 120.754 23.6406C120.858 23.5625 120.93 23.5169 120.969 23.5039C121.021 23.4779 121.073 23.4388 121.125 23.3867C121.164 23.2826 121.19 23.2305 121.203 23.2305C121.229 23.2305 121.249 23.224 121.262 23.2109C121.327 23.0417 121.346 22.931 121.32 22.8789C121.385 22.6836 121.418 22.5729 121.418 22.5469C121.431 22.5078 121.438 22.4883 121.438 22.4883C121.451 22.4753 121.464 22.4622 121.477 22.4492C121.49 22.4362 121.509 22.4036 121.535 22.3516C121.522 22.2865 121.522 22.2148 121.535 22.1367C121.561 22.0586 121.561 21.987 121.535 21.9219C121.6 21.8307 121.626 21.7917 121.613 21.8047C121.6 21.8177 121.607 21.7917 121.633 21.7266C121.685 21.7005 121.698 21.6615 121.672 21.6094C121.646 21.5443 121.659 21.4987 121.711 21.4727C121.672 21.3685 121.659 21.2448 121.672 21.1016C121.698 20.9453 121.704 20.8151 121.691 20.7109C121.691 20.6719 121.685 20.6393 121.672 20.6133C121.659 20.5742 121.652 20.5352 121.652 20.4961C121.652 20.444 121.652 20.3854 121.652 20.3203C121.652 20.2422 121.659 20.1771 121.672 20.125C121.724 20.0078 121.743 19.9427 121.73 19.9297C121.73 19.9167 121.737 19.8971 121.75 19.8711C121.802 19.819 121.815 19.7018 121.789 19.5195C121.776 19.3242 121.776 19.1875 121.789 19.1094C121.672 19.0573 121.594 19.0247 121.555 19.0117C121.529 18.9987 121.49 19.0117 121.438 19.0508C121.372 19.0247 121.314 19.0312 121.262 19.0703C121.21 19.0964 121.151 19.1094 121.086 19.1094C120.969 19.0964 120.884 19.1029 120.832 19.1289C120.793 19.1549 120.734 19.1484 120.656 19.1094C120.604 19.1094 120.565 19.0964 120.539 19.0703C120.513 19.0443 120.48 19.0378 120.441 19.0508C120.389 18.9206 120.272 18.8229 120.09 18.7578C120.025 18.6016 120.005 18.4909 120.031 18.4258C120.07 18.3477 120.077 18.276 120.051 18.2109C120.168 18.1068 120.246 18.0482 120.285 18.0352C120.324 18.0221 120.37 18.0091 120.422 17.9961C120.526 17.9701 120.656 17.9701 120.812 17.9961C120.982 18.0091 121.132 18.0026 121.262 17.9766C121.392 17.9375 121.457 17.9245 121.457 17.9375C121.47 17.9505 121.49 17.957 121.516 17.957C121.568 17.918 121.607 17.9115 121.633 17.9375C121.659 17.9635 121.685 17.9766 121.711 17.9766C121.815 17.9766 121.9 17.957 121.965 17.918C122.121 17.918 122.212 17.9115 122.238 17.8984C122.277 17.8724 122.31 17.8529 122.336 17.8398C122.44 17.8789 122.557 17.8724 122.688 17.8203C122.831 17.7682 122.941 17.7878 123.02 17.8789C123.15 17.8268 123.273 17.8333 123.391 17.8984C123.443 17.8984 123.501 17.8984 123.566 17.8984C123.632 17.8984 123.684 17.8854 123.723 17.8594C123.853 17.9245 123.938 17.9766 123.977 18.0156C124.016 18.0417 124.068 18.0547 124.133 18.0547C124.133 18.1068 124.152 18.1523 124.191 18.1914C124.243 18.2174 124.283 18.2435 124.309 18.2695Z" fill="white"/>
<defs>
<clipPath id="clip0_6_2377">
<rect width="40" height="40" fill="white"/>
</clipPath>
</defs>
</svg>
