<?xml version="1.0" standalone="no"?>
<!DOCTYPE svg PUBLIC "-//W3C//DTD SVG 20010904//EN"
 "http://www.w3.org/TR/2001/REC-SVG-20010904/DTD/svg10.dtd">
<svg version="1.0" xmlns="http://www.w3.org/2000/svg"
 width="260.000000pt" height="260.000000pt" viewBox="0 0 260.000000 260.000000"
 preserveAspectRatio="xMidYMid meet">
<metadata>
Created by potrace 1.14, written by Peter Selinger 2001-2017
</metadata>
<g transform="translate(0.000000,260.000000) scale(0.100000,-0.100000)"
fill="#000000" stroke="none">
<path d="M649 2573 c-3 -122 -58 -271 -138 -373 -116 -147 -303 -244 -484
-249 l-29 -1 5 -412 c2 -227 7 -426 11 -443 4 -16 12 -50 17 -75 109 -501 502
-886 1020 -996 118 -25 381 -25 499 0 379 82 684 299 873 623 68 117 139 304
152 403 2 19 9 58 14 85 10 51 8 307 -3 360 -4 17 -11 55 -17 85 -51 257 -216
531 -429 711 -169 144 -362 235 -594 284 -102 21 -136 23 -503 24 l-393 2 -1
-28z m684 -624 c73 -1 181 -31 259 -70 153 -76 268 -209 324 -375 34 -98 41
-245 18 -344 -26 -113 -96 -242 -174 -320 -251 -251 -670 -250 -920 2 -108
109 -188 290 -190 431 l0 27 -267 0 c-146 0 -264 2 -262 4 2 2 30 7 62 10 361
42 727 283 927 611 88 143 135 271 175 475 2 8 5 33 7 55 1 22 4 -83 5 -232
l3 -273 33 -1z"/>
</g>
</svg>
